<svg width="3328" height="627" viewBox="0 0 3328 627" fill="none" xmlns="http://www.w3.org/2000/svg">
<path d="M380.327 434.739C381.278 434.026 381.04 434.026 379.614 434.739H380.327ZM305.474 365.945H321.87C321.87 364.044 323.534 361.193 326.86 357.391V352.4H326.147C312.365 360.955 305.474 365.47 305.474 365.945ZM470.864 358.46C470.864 359.648 468.132 362.618 462.666 367.371C467.181 367.371 469.914 367.965 470.864 369.153H471.577V358.46H470.864ZM134.736 381.629V382.342H135.806C139.132 380.203 141.271 379.134 142.222 379.134V378.421H141.509C138.182 380.56 135.924 381.629 134.736 381.629ZM415.259 426.541C442.586 408.243 459.22 399.095 465.161 399.095H465.874C467.775 399.095 469.676 399.926 471.577 401.59V381.629C457.557 394.699 438.784 409.669 415.259 426.541ZM124.756 387.332V388.401H125.825C129.152 386.025 131.291 384.837 132.241 384.837V384.124H131.528C128.201 386.263 125.944 387.332 124.756 387.332ZM336.128 386.619V388.401C337.316 388.401 337.91 387.807 337.91 386.619H336.128ZM218.857 396.6V397.312C222.422 397.312 224.917 397.907 226.343 399.095V393.392H225.63C222.303 395.53 220.046 396.6 218.857 396.6ZM351.812 401.59C350.861 403.966 345.633 406.224 336.128 408.362V414.778H336.841C341.356 410.501 346.94 406.342 353.594 402.303V401.59H351.812ZM413.477 459.69C441.755 440.918 458.626 431.531 464.092 431.531H466.587C468.25 431.531 469.914 432.125 471.577 433.313V413.353C459.22 425.234 439.854 440.68 413.477 459.69ZM90.8936 418.343V423.333C91.6064 423.333 93.2699 421.67 95.8838 418.343H90.8936ZM215.649 427.254V428.323H217.075L221.353 427.254L226.343 429.749V418.343C220.64 424.284 217.075 427.254 215.649 427.254ZM377.476 436.165C356.089 450.185 342.306 457.195 336.128 457.195V468.958C346.821 460.166 360.841 449.235 378.188 436.165H377.476ZM336.128 434.739V438.304C337.078 438.304 338.148 437.116 339.336 434.739H336.128ZM223.135 450.779C223.848 450.779 224.917 451.255 226.343 452.205V447.215C225.392 447.215 224.323 448.403 223.135 450.779ZM96.5967 454.7H90.8936V465.75L104.795 453.274H104.082C100.518 454.225 98.0225 454.7 96.5967 454.7ZM470.864 453.987V455.77H471.577V453.987H470.864ZM337.91 488.919H336.128V501.395C347.772 491.414 366.901 476.681 393.516 457.195C362.148 478.344 343.613 488.919 337.91 488.919ZM223.135 468.245V468.958C223.848 468.958 224.917 469.552 226.343 470.74V464.681C225.392 464.681 224.323 465.869 223.135 468.245ZM90.8936 493.909V498.899C94.6956 496.048 96.5967 494.384 96.5967 493.909H90.8936ZM336.128 543.812V548.089H359.297C363.337 540.247 374.98 529.078 394.229 514.583L420.249 493.909C371.535 527.177 343.494 543.812 336.128 543.812ZM116.558 548.089H140.796C145.549 539.772 153.271 531.455 163.965 523.138L188.916 499.612L116.558 548.089ZM470.864 505.672C470.864 506.622 466.112 513.276 456.606 525.633C461.834 522.781 465.161 521.355 466.587 521.355L471.577 523.851V505.672H470.864ZM225.63 523.851V525.633H226.343V523.851H225.63ZM470.864 536.326V539.534H471.577V536.326H470.864ZM447.695 547.02V548.089H453.398C453.398 546.188 453.636 544.762 454.111 543.812H453.398C450.547 545.95 448.646 547.02 447.695 547.02ZM214.58 358.46V359.173H215.649L225.63 354.183V353.47H224.561C219.095 356.797 215.768 358.46 214.58 358.46ZM256.997 334.222C256.997 335.172 249.868 339.331 235.61 346.697V348.479H236.323L258.779 334.935V334.222H256.997ZM90.8936 334.222V338.499C94.6956 335.647 96.5967 333.984 96.5967 333.509H95.8838L90.8936 334.222ZM449.121 349.905V350.975H450.903C450.903 349.074 455.656 347.054 465.161 344.915H465.874C467.775 344.915 469.676 345.747 471.577 347.41V331.727C458.507 343.846 451.022 349.905 449.121 349.905ZM334.346 346.697C335.059 347.648 335.415 348.479 335.415 349.192H336.128C341.831 344.44 358.703 332.202 386.743 312.479C353.95 334.34 336.484 345.747 334.346 346.697ZM464.092 317.469C467.419 317.469 469.914 318.3 471.577 319.964V309.983C470.864 309.983 468.369 312.479 464.092 317.469ZM93.3887 307.488H90.8936V313.548C95.4085 309.508 98.1413 307.488 99.0918 307.488V306.775H98.3789L93.3887 307.488ZM92.3193 281.111H90.8936V288.597C93.7451 286.696 98.1413 283.012 104.082 277.547H103.369C98.8542 279.923 95.1709 281.111 92.3193 281.111ZM470.864 266.141C468.013 270.656 459.933 277.785 446.626 287.527C455.656 282.537 462.31 280.042 466.587 280.042L471.577 282.537V266.141H470.864ZM293.711 259.368C293.711 267.448 273.988 284.319 234.541 309.983C219.333 320.677 211.016 326.023 209.59 326.023V326.736H210.659C245.353 310.34 275.295 293.468 300.483 276.121L323.652 259.368H293.711ZM223.848 261.15H224.561C225.749 261.15 226.343 260.556 226.343 259.368H225.63C224.442 259.606 223.848 260.2 223.848 261.15ZM464.092 251.883C465.993 251.883 468.488 252.715 471.577 254.378V244.397C470.864 244.397 468.369 246.893 464.092 251.883ZM92.3193 251.17H90.8936V261.863C96.1214 257.111 107.765 247.962 125.825 234.417C108.716 245.586 97.5472 251.17 92.3193 251.17ZM219.927 238.694C218.263 240.12 216.243 241.784 213.867 243.685L219.57 242.615H219.927V238.694ZM221.353 242.615C222.778 242.615 224.442 243.209 226.343 244.397V231.922H225.63C225.63 232.872 224.204 234.655 221.353 237.269V242.615ZM90.8936 379.847V393.392C117.033 372.005 162.777 340.638 228.125 299.29V298.577H227.056L124.756 364.876C109.072 374.856 97.7848 379.847 90.8936 379.847ZM110.854 87.918C120.835 81.2643 125.825 77.6999 125.825 77.2246H112.28C112.28 79.1257 111.805 81.1455 110.854 83.2842V87.918ZM108.716 87.5615C108.241 88.2744 107.765 88.9873 107.29 89.7002H108.359L108.716 89.3438V87.5615ZM158.975 77.2246C158.975 81.9772 148.757 93.3835 128.32 111.443C156.123 92.4329 173.232 81.2643 179.648 77.9375V77.2246H158.975ZM205.669 77.2246V79.0068H206.382C207.332 78.2939 208.164 77.9375 208.877 77.9375V77.2246H205.669ZM336.128 77.2246V79.0068C337.316 79.0068 337.91 78.4128 337.91 77.2246H336.128ZM357.871 77.2246L356.802 81.502H357.871C360.485 79.1257 362.386 77.9375 363.574 77.9375V77.2246H357.871ZM385.317 77.2246C385.317 81.9772 375.575 95.5221 356.089 117.859C388.169 96.235 408.724 82.9277 417.754 77.9375V77.2246H385.317ZM465.161 77.2246V79.7197C467.537 79.7197 469.676 80.5514 471.577 82.2148V77.2246H465.161ZM221.353 108.235L226.343 109.661V87.918H225.63C224.442 89.3438 223.016 90.8883 221.353 92.5518V108.235ZM219.927 94.334C209.946 104.314 194.857 116.315 174.658 130.335C158.737 141.979 149.945 148.632 148.281 150.296C187.965 122.968 211.847 108.829 219.927 107.879V94.334ZM336.128 108.948V120.354C336.603 120.354 342.188 114.057 352.881 101.463H351.812C344.683 106.453 339.455 108.948 336.128 108.948ZM90.8936 119.642V127.127C99.4482 119.76 103.844 115.602 104.082 114.651C98.3789 117.978 93.9827 119.642 90.8936 119.642ZM221.353 127.127L226.343 129.622V122.137C225.63 122.137 223.966 123.8 221.353 127.127ZM108.716 157.425C101.112 161.702 96.2402 163.841 94.1016 163.841H90.8936V178.812C95.1709 174.772 101.112 169.782 108.716 163.841V157.425ZM110.854 162.059C123.687 151.84 140.796 138.771 162.183 122.85C139.608 138.296 122.498 149.345 110.854 155.999V162.059ZM470.864 125.345V127.84H471.577V125.345H470.864ZM336.128 169.544V182.02C351.574 169.425 371.772 153.86 396.724 135.325C363.693 158.138 343.494 169.544 336.128 169.544ZM464.092 146.375C467.419 146.375 469.914 147.207 471.577 148.87V138.89L464.092 146.375ZM219.927 147.801C203.768 162.296 180.955 180.118 151.489 201.268C190.698 174.653 213.392 161.346 219.57 161.346H219.927V147.801ZM221.353 161.346C222.778 161.346 224.442 161.821 226.343 162.771V142.098C224.679 143.523 223.016 145.068 221.353 146.731V161.346ZM470.864 159.563C470.864 160.514 469.438 162.415 466.587 165.267C468.25 165.267 469.914 165.861 471.577 167.049V159.563H470.864ZM225.63 175.247C220.877 181.663 210.897 190.337 195.688 201.268C192.124 203.882 189.867 205.188 188.916 205.188V206.258H190.698C204.243 196.515 213.867 191.525 219.57 191.287H221.353C222.778 191.287 224.442 191.762 226.343 192.713V175.247H225.63ZM137.944 192.713C112.28 209.347 96.5967 217.664 90.8936 217.664V231.209C102.775 221.466 119.29 208.634 140.439 192.713H137.944ZM142.222 191.287C148.162 186.772 154.578 182.02 161.47 177.029C153.866 182.257 146.737 187.01 140.083 191.287H142.222ZM465.874 178.812C465.399 178.812 465.161 178.455 465.161 177.742C461.359 179.406 459.102 180.237 458.389 180.237V181.307C467.181 181.307 471.577 182.376 471.577 184.515V177.029H470.864C468.963 178.217 467.3 178.812 465.874 178.812ZM470.864 201.268C470.864 202.931 467.775 206.495 461.597 211.961C464.924 211.961 468.25 213.03 471.577 215.169V201.268H470.864ZM207.095 221.229V221.941H208.164C213.154 219.09 217.313 217.664 220.64 217.664H221.353C222.778 217.664 224.442 218.258 226.343 219.446V205.188C216.6 214.931 210.184 220.278 207.095 221.229ZM421.675 216.238V216.951H422.744C426.071 214.812 428.21 213.743 429.16 213.743V212.674H428.447C425.12 215.05 422.863 216.238 421.675 216.238ZM336.128 215.169V216.951C337.316 216.951 337.91 216.357 337.91 215.169H336.128ZM415.972 219.446V220.159H416.685C417.873 219.684 418.704 219.446 419.18 219.446V218.733H418.467C417.279 219.209 416.447 219.446 415.972 219.446ZM411.694 221.941V222.654H413.477V221.941H411.694ZM90.8936 77.2246V79.0068H91.6064C92.7946 79.0068 93.3887 78.4128 93.3887 77.2246H90.8936ZM251.65 191.287H309.038V192.713H251.65V191.287ZM498.311 555.218H552.847V436.165H482.271V434.739H552.847V314.617H486.191V312.835H552.847V192.713H480.845V548.089H496.528C497.716 548.089 498.311 548.564 498.311 549.515V555.218ZM443.062 118.216V122.137C454.468 115.483 461.834 112.156 465.161 112.156H465.874C467.775 112.156 469.676 112.988 471.577 114.651V92.9082H470.864C464.924 100.275 455.656 108.711 443.062 118.216ZM441.636 496.048V493.909C437.596 497.236 433.2 500.8 428.447 504.603C433.438 501.276 437.834 498.424 441.636 496.048ZM268.047 555.218H293.711V549.515C293.949 548.564 294.543 548.089 295.493 548.089H326.86V374.856H258.779C255.928 374.856 248.205 379.371 235.61 388.401V548.089H266.265C267.453 548.089 268.047 548.564 268.047 549.515V555.218ZM219.927 499.612V489.275C214.699 494.503 206.025 502.701 193.906 513.87C206.501 505.315 215.174 500.563 219.927 499.612ZM304.404 72.2344H271.968V75.4424C271.968 76.6305 271.493 77.2246 270.542 77.2246H235.61V250.101H326.86V77.2246H306.187C304.998 77.2246 304.404 76.6305 304.404 75.4424V72.2344ZM221.353 67.957H226.343V35.5205C226.58 34.57 227.174 34.0947 228.125 34.0947H233.828C235.016 34.0947 235.61 34.57 235.61 35.5205V67.957H270.542C271.493 68.1947 271.968 68.7887 271.968 69.7393V70.0957H304.404V69.7393C304.642 68.5511 305.236 67.957 306.187 67.957H326.86V21.6191C327.098 20.431 327.692 19.8369 328.643 19.8369H330.425V2.01465C330.425 1.06413 330.9 0.588867 331.851 0.588867L332.563 2.01465V19.8369H333.633C334.821 20.0745 335.415 20.6686 335.415 21.6191V67.957H441.636V1.30176H443.062V67.957H471.577V30.5303C471.815 29.5798 472.409 29.1045 473.359 29.1045H479.062C480.251 29.1045 480.845 29.5798 480.845 30.5303V67.957H515.776C516.965 68.1947 517.559 68.7887 517.559 69.7393V70.0957H552.847V1.30176H554.272V626.15H552.847V557.356H480.845V600.486C480.845 601.437 480.251 601.912 479.062 601.912H473.359C472.171 601.912 471.577 601.437 471.577 600.486V557.356H443.062V626.15H441.636V557.356H335.415V583.733C335.415 584.922 334.821 585.516 333.633 585.516H332.563V625.438C332.563 626.388 332.088 626.863 331.138 626.863L330.425 625.438V585.516H328.643C327.454 585.516 326.86 584.922 326.86 583.733V557.356H235.61V608.685C235.61 609.873 235.016 610.467 233.828 610.467H228.125C226.937 610.467 226.343 609.873 226.343 608.685V557.356H221.353V626.15H219.927V557.356H110.854V625.438C110.854 626.388 110.379 626.863 109.429 626.863L108.716 625.438V557.356H90.8936V596.922C90.8936 598.11 90.2995 598.704 89.1113 598.704H83.4082C82.2201 598.704 81.626 598.11 81.626 596.922V557.356H0V555.218H36.7139V549.515C36.9515 548.564 37.5456 548.089 38.4961 548.089H81.626V314.617H0V312.835H81.626V192.713H0V191.287H81.626V77.2246H56.6748C55.4867 77.2246 54.8926 76.6305 54.8926 75.4424V72.2344H0V70.0957H54.8926V69.7393C55.1302 68.5511 55.7243 67.957 56.6748 67.957H81.626V16.6289C81.8636 15.4408 82.4577 14.8467 83.4082 14.8467H89.1113C90.2995 15.0843 90.8936 15.6784 90.8936 16.6289V67.957H108.716V2.01465C108.716 1.06413 109.191 0.588867 110.142 0.588867L110.854 2.01465V67.957H219.927V1.30176H221.353V67.957ZM221.353 538.108V548.089H226.343V535.613C224.917 536.326 223.254 537.158 221.353 538.108ZM219.927 538.821C216.125 540.96 211.61 543.693 206.382 547.02V548.089H219.927V538.821ZM221.353 499.612C222.778 499.612 224.442 500.206 226.343 501.395V482.146H225.63C225.63 482.859 224.204 484.76 221.353 487.85V499.612ZM443.062 518.504V520.643C444.012 519.454 444.963 518.266 445.913 517.078H445.2C444.487 517.553 443.774 518.029 443.062 518.504ZM441.636 519.573C414.784 537.871 400.645 547.02 399.219 547.02V548.089H425.239C425.239 545 430.705 536.445 441.636 522.425V519.573ZM443.062 494.979C454.23 488.087 461.24 484.642 464.092 484.642H468.369L470.864 486.424H471.577V467.176C464.686 474.067 455.181 482.622 443.062 492.84V494.979ZM441.636 119.642C436.408 123.444 430.586 127.602 424.17 132.117C414.902 138.533 409.437 142.692 407.773 144.593C421.318 135.325 432.606 128.077 441.636 122.85V119.642ZM517.559 72.2344V75.4424C517.559 76.6305 516.965 77.2246 515.776 77.2246H480.845V191.287H552.847V72.2344H517.559ZM0 434.739H68.4375V436.165H0V434.739ZM800.576 78.2939C800.576 80.9079 798.319 84.8288 793.804 90.0566V90.7695C805.448 83.6406 811.626 79.4821 812.339 78.2939H800.576ZM1015.16 547.376V548.089H1030.84V539.178L1015.16 547.376ZM691.504 548.089H705.762C705.762 545.95 710.514 539.653 720.02 529.197C701.484 540.841 691.979 547.138 691.504 548.089ZM914.639 529.91C912.738 528.722 911.312 528.128 910.361 528.128V529.197C912.5 535.613 913.569 539.415 913.569 540.604C917.134 535.851 921.886 530.861 927.827 525.633C922.362 528.484 917.965 529.91 914.639 529.91ZM944.58 548.089H963.472C966.799 542.623 976.541 531.811 992.7 515.652C960.858 536.564 944.818 547.376 944.58 548.089ZM619.146 503.177C619.146 504.603 617.244 510.781 613.442 521.712C625.086 511.731 631.74 506.741 633.403 506.741V505.672L627.7 506.741H625.918C624.017 506.741 621.759 505.553 619.146 503.177ZM1025.85 499.969C1025.85 501.157 1019.79 507.811 1007.67 519.93C1019.31 512.088 1026.8 508.167 1030.13 508.167C1028.46 502.701 1027.04 499.969 1025.85 499.969ZM718.95 504.959V505.672H720.732C732.852 496.167 743.07 490.701 751.387 489.275L754.951 476.8C732.139 495.573 720.138 504.959 718.95 504.959ZM1007.67 481.79V482.503H1008.38C1013.37 479.651 1017.06 478.226 1019.43 478.226C1018.25 476.087 1017.65 474.424 1017.65 473.235C1012.19 478.938 1008.86 481.79 1007.67 481.79ZM905.371 492.483H902.876C901.45 492.483 899.787 491.889 897.886 490.701V491.771C902.401 503.89 904.658 510.781 904.658 512.444H905.371C905.371 506.979 923.075 489.751 958.481 460.76C927.59 481.909 909.886 492.483 905.371 492.483ZM844.775 465.75V466.819H852.261C852.261 464.681 853.568 462.186 856.182 459.334C849.29 463.611 845.488 465.75 844.775 465.75ZM895.391 467.532C889.925 466.819 887.192 464.087 887.192 459.334C880.776 463.611 877.093 465.75 876.143 465.75V466.819H888.618C889.569 466.819 891.826 472.285 895.391 483.216H896.104C896.104 479.176 909.411 466.463 936.025 445.076C913.926 460.047 900.381 467.532 895.391 467.532ZM957.056 480.008C987.71 459.572 1004.82 449.354 1008.38 449.354V448.284C1006.25 442.106 1005.18 438.541 1005.18 437.591H1004.46C995.908 445.908 980.106 460.047 957.056 480.008ZM705.762 440.799C711.227 437.947 713.96 436.046 713.96 435.096C708.494 437.947 705.762 439.848 705.762 440.799ZM786.318 465.75V466.819H817.329C820.894 459.928 832.537 445.789 852.261 424.402C852.974 424.402 853.805 423.571 854.756 421.907H853.687C810.438 451.136 787.982 465.75 786.318 465.75ZM723.94 428.323L738.198 420.125V419.412H737.485C728.693 424.402 724.178 427.373 723.94 428.323ZM960.264 443.294C981.888 429.036 994.958 421.907 999.473 421.907C997.096 417.155 995.908 413.828 995.908 411.927C989.017 418.818 977.135 429.274 960.264 443.294ZM853.687 403.372V405.867H854.756C856.895 405.154 857.964 404.323 857.964 403.372H853.687ZM807.349 403.372C807.349 408.6 797.606 419.769 778.12 436.878L828.022 403.372H807.349ZM656.572 398.382C656.572 399.808 655.265 404.323 652.651 411.927C659.78 405.748 663.939 402.659 665.127 402.659V401.946C662.275 401.946 659.424 400.758 656.572 398.382ZM864.736 388.401V389.471L865.449 393.392H867.231C867.231 392.679 867.707 391.609 868.657 390.184C867.231 390.184 865.924 389.59 864.736 388.401ZM761.367 402.659V405.154C771.348 400.164 778.001 397.669 781.328 397.669C781.328 396.006 782.516 391.847 784.893 385.193C769.209 396.124 761.367 401.946 761.367 402.659ZM850.479 445.789V446.858C870.202 435.69 891.589 419.056 914.639 396.956C916.064 396.956 921.292 392.441 930.322 383.411C899.906 404.085 882.44 414.422 877.925 414.422C877.925 415.848 868.776 426.303 850.479 445.789ZM668.335 365.945C668.335 366.896 667.266 370.817 665.127 377.708C665.84 377.708 669.404 374.975 675.82 369.51C674.157 369.51 671.899 368.322 669.048 365.945H668.335ZM862.954 370.223C861.528 370.223 859.865 369.629 857.964 368.44V369.51C860.34 377.114 862.004 380.916 862.954 380.916C862.954 378.54 867.707 373.312 877.212 365.232H876.143C871.152 368.559 866.756 370.223 862.954 370.223ZM927.114 404.441C951.828 387.332 969.769 376.52 980.938 372.005V370.936L977.017 359.529C966.086 370.223 949.451 385.193 927.114 404.441ZM853.687 355.965V357.034C854.399 357.985 854.756 359.054 854.756 360.242H856.182C856.182 359.529 856.538 358.698 857.251 357.747C856.3 357.747 855.112 357.153 853.687 355.965ZM847.983 337.786V338.499C849.647 345.153 851.073 348.479 852.261 348.479C852.261 347.054 854.756 343.727 859.746 338.499C855.469 339.687 853.211 340.281 852.974 340.281L847.983 337.786ZM680.811 332.083C677.484 341.351 675.82 346.578 675.82 347.767L690.791 335.291C685.801 335.291 682.474 334.222 680.811 332.083ZM800.576 328.519V329.588H803.071L803.784 327.806V327.093C802.596 328.043 801.527 328.519 800.576 328.519ZM842.28 321.033C843.231 323.41 843.706 325.429 843.706 327.093H845.488C845.488 326.142 846.082 324.716 847.271 322.815L842.28 321.033ZM950.283 325.311V326.023H950.996L962.759 320.32L962.046 316.043H960.977C955.036 322.221 951.471 325.311 950.283 325.311ZM762.437 305.35L698.989 345.271V345.984H700.059L763.862 306.062V305.35H762.437ZM791.309 394.461H856.182V393.392C835.27 328.756 824.814 296.082 824.814 295.369C823.864 295.607 815.19 321.39 798.794 372.718C798.319 372.955 795.824 380.203 791.309 394.461ZM693.999 294.656L688.296 312.835H689.009C702.078 302.379 709.326 297.151 710.752 297.151V296.082H710.039C705.762 297.27 702.91 297.864 701.484 297.864C700.059 297.864 697.563 296.795 693.999 294.656ZM840.498 298.577H839.785C838.122 298.577 836.458 298.102 834.795 297.151V297.864L838.716 311.053H839.785C839.785 307.964 845.845 301.31 857.964 291.092C849.884 296.082 844.062 298.577 840.498 298.577ZM946.006 290.379H947.075L950.996 289.666V286.102C947.669 288.24 946.006 289.666 946.006 290.379ZM782.397 265.428L713.96 309.627V310.34H715.742L783.823 266.141V265.428H782.397ZM921.055 259.725C929.372 254.734 935.194 252.239 938.521 252.239C937.57 249.863 937.095 247.843 937.095 246.18H936.025C926.045 254.497 921.055 259.012 921.055 259.725ZM841.211 242.259V242.972H842.993V242.259H841.211ZM843.706 267.21V267.923H845.488C845.964 267.923 859.271 259.012 885.41 241.189L843.706 267.21ZM750.674 238.694C734.753 249.863 723.346 255.447 716.455 255.447C714.792 255.447 712.653 254.378 710.039 252.239H708.97L701.484 275.408C733.089 251.645 750.08 239.764 752.456 239.764V238.694H750.674ZM718.237 227.288C716.574 232.516 715.742 235.249 715.742 235.486C720.257 232.397 722.515 230.496 722.515 229.783C721.564 229.783 720.138 228.951 718.237 227.288ZM887.192 213.03C886.955 213.743 873.885 222.06 847.983 237.981V238.694H849.766C850.003 237.981 862.954 229.664 888.618 213.743V213.03H887.192ZM920.342 203.763L914.639 210.535H915.352L922.837 208.753C922.362 205.426 921.53 203.763 920.342 203.763ZM871.152 193.069C869.251 195.208 857.37 202.931 835.508 216.238V217.308H837.29C841.092 213.981 852.974 206.139 872.935 193.782V193.069H871.152ZM911.074 178.812C905.371 185.94 900.381 190.455 896.104 192.356V193.069H897.173C904.539 189.267 910.599 187.366 915.352 187.366C913.688 183.326 912.856 180.475 912.856 178.812H911.074ZM825.527 191.287L857.964 168.831L823.389 191.287H825.527ZM821.25 192.713L813.052 198.06V198.772H814.834L823.389 192.713H821.25ZM741.406 162.415L739.98 168.118C742.357 166.93 743.664 165.861 743.901 164.91C743.901 163.96 743.07 163.128 741.406 162.415ZM851.191 191.287C878.044 174.178 892.777 165.623 895.391 165.623C899.43 163.484 902.995 162.415 906.084 162.415L902.876 151.365H902.163C889.331 162.534 871.628 175.841 849.053 191.287H851.191ZM774.556 240.12L730 269.705V270.418H731.426C746.872 259.962 761.248 250.338 774.556 241.546V240.12ZM775.981 240.477C805.923 220.516 830.28 204.594 849.053 192.713H846.914C831.468 203.169 813.765 214.694 793.804 227.288L775.981 239.051V240.477ZM753.169 128.909C753.169 129.86 751.268 135.682 747.466 146.375C759.11 136.395 765.407 131.404 766.357 131.404V130.691L760.654 131.404H757.446L753.169 128.909ZM769.922 192.356C842.399 142.929 882.559 118.216 890.4 118.216C888.262 111.562 887.192 107.641 887.192 106.453H886.123C863.073 126.652 834.32 148.038 799.863 170.613C779.902 184.396 769.922 191.644 769.922 192.356ZM765.645 95.7598C764.456 97.8984 763.387 100.988 762.437 105.027C762.674 105.027 764.813 102.532 768.853 97.542C768.14 97.542 767.07 96.9479 765.645 95.7598ZM846.201 78.2939C846.201 84.2347 834.557 95.8786 811.27 113.226C840.023 93.9775 858.677 82.5713 867.231 79.0068V78.2939H846.201ZM554.629 434.739H623.066V436.165H554.629V434.739ZM1099.99 555.218H1107.48V436.165H1036.9V434.739H1107.48V314.617H1040.82V312.835H1107.48V192.713H1030.13V191.287H1107.48V72.2344H997.69V136.751H996.265V72.2344H908.579V76.5117C908.579 77.6999 908.104 78.2939 907.153 78.2939H886.123C887.549 82.5713 924.263 185.465 996.265 386.976V350.618H997.69V390.896C1014.56 438.185 1033.45 490.939 1054.37 549.158H1098.21C1099.4 549.158 1099.99 549.633 1099.99 550.584V555.218ZM878.638 555.218V550.584C878.875 549.633 879.469 549.158 880.42 549.158H885.054V516.365C885.054 515.177 885.529 514.583 886.479 514.583L887.192 516.365V549.158H907.153V548.089L883.628 475.73H775.981V555.218H878.638ZM774.556 475.73H765.645C763.981 477.632 755.902 502.107 741.406 549.158H763.149C764.338 549.158 764.932 549.633 764.932 550.584V555.218H774.556V475.73ZM663.345 534.544V524.207C648.374 533.95 635.661 541.673 625.205 547.376V548.089H652.651C653.602 545.237 657.166 540.722 663.345 534.544ZM775.981 42.6494C776.219 42.4118 776.457 42.0553 776.694 41.5801C780.021 42.5306 782.516 43.5999 784.18 44.7881L775.981 66.1748V69.0264H872.935C872.935 67.8382 868.776 55.9567 860.459 33.3818C862.122 32.4313 864.618 31.362 867.944 30.1738C870.321 33.5007 875.073 46.4515 882.202 69.0264H885.054V2.01465C885.054 1.06413 885.529 0.588867 886.479 0.588867L887.192 2.01465V69.0264H907.153C907.866 69.264 908.341 69.6204 908.579 70.0957H996.265V1.30176H997.69V70.0957H1107.48V1.30176H1108.9V626.15H1107.48V557.356H1057.57V558.069C1063.99 574.941 1067.2 583.971 1067.2 585.159C1064.11 586.823 1061.61 587.654 1059.71 587.654C1058.05 584.09 1054.01 573.991 1047.59 557.356H997.69V626.15H996.265V557.356H919.629C923.193 568.287 924.976 574.347 924.976 575.535C921.886 577.199 919.391 578.03 917.49 578.03C916.302 576.367 913.926 569.476 910.361 557.356H887.192V625.438C887.192 626.388 886.717 626.863 885.767 626.863L885.054 625.438V557.356H775.981V626.15H774.556V557.356H738.198C731.545 578.268 727.624 588.961 726.436 589.437C721.445 588.486 718.95 587.417 718.95 586.229L728.931 557.356H665.483V625.438C665.483 626.388 665.008 626.863 664.058 626.863L663.345 625.438V557.356H600.254C598.115 564.248 595.62 570.901 592.769 577.317C587.778 575.892 585.283 574.466 585.283 573.04L590.986 557.356H545.005C543.817 557.356 543.223 556.762 543.223 555.574V550.584C543.46 549.633 544.054 549.158 545.005 549.158H592.769C595.382 545.594 609.759 505.91 635.898 430.105C717.881 202.693 759.704 85.4229 761.367 78.2939H723.228C722.039 78.2939 721.445 77.6999 721.445 76.5117V72.2344H665.483V191.287H702.554V192.713H665.483V198.06C665.483 199.01 665.008 199.485 664.058 199.485L663.345 198.06V192.713H554.629V191.287H663.345V72.2344H554.629V70.0957H663.345V2.01465C663.345 1.06413 663.82 0.588867 664.771 0.588867L665.483 2.01465V70.0957H721.802C722.039 69.3828 722.515 69.0264 723.228 69.0264H765.645C769.209 58.333 772.179 50.4912 774.556 45.501V1.30176H775.981V42.6494ZM774.556 82.9277V78.2939H771.348C770.872 79.9574 770.635 82.2148 770.635 85.0664C772.061 84.3535 773.368 83.6406 774.556 82.9277ZM775.981 169.9V170.97H774.556C757.209 181.901 746.159 187.366 741.406 187.366H739.98C738.079 187.366 736.06 186.535 733.921 184.871H733.208C733.208 185.822 730.475 194.139 725.01 209.822C744.733 193.901 769.922 175.247 800.576 153.86C791.309 160.039 783.11 165.385 775.981 169.9ZM775.981 81.8584C777.407 80.9079 778.714 79.7197 779.902 78.2939H775.981V81.8584ZM665.483 532.405C674.038 524.326 686.632 513.751 703.267 500.682L728.931 481.79V480.721H727.505C703.742 497.355 683.068 511.375 665.483 522.781V532.405ZM664.771 332.083L665.483 333.509V339.568C665.483 340.519 665.008 340.994 664.058 340.994L663.345 339.568V333.509C663.345 332.558 663.82 332.083 664.771 332.083ZM996.265 269.349H997.69V292.518H996.265V269.349ZM664.771 250.457L665.483 251.883V286.458C665.483 287.409 665.008 287.884 664.058 287.884L663.345 286.458V251.883C663.345 250.932 663.82 250.457 664.771 250.457ZM979.868 191.287H986.284V192.713H979.868V191.287ZM554.629 312.835H641.958V314.617H554.629V312.835ZM1189.81 77.9375V79.7197C1191 79.2445 1191.72 79.0068 1191.95 79.0068V77.9375H1189.81ZM1374.1 304.993C1374.1 306.894 1373.74 308.32 1373.03 309.271H1376.24C1375.28 307.369 1374.81 305.944 1374.81 304.993H1374.1ZM1296.04 308.558L1232.94 354.896V355.965H1234.01C1240.43 350.499 1261.58 334.935 1297.46 309.271V308.558H1296.04ZM1563.01 354.183C1583.21 339.212 1595.57 331.727 1600.08 331.727H1601.51C1602.93 331.727 1604.48 332.321 1606.14 333.509V332.439C1605.43 326.499 1605.07 321.271 1605.07 316.756V316.043H1604.36C1593.19 328.162 1579.41 340.875 1563.01 354.183ZM1379.09 316.756C1379.09 320.083 1376.35 324.835 1370.89 331.014H1371.96C1379.32 326.974 1383.01 324.716 1383.01 324.241C1380.87 320.201 1379.8 317.706 1379.8 316.756H1379.09ZM1490.3 344.202V345.984H1491.37C1497.78 342.182 1508.95 334.697 1524.87 323.528V322.459H1524.52C1502.65 336.954 1491.25 344.202 1490.3 344.202ZM1489.58 359.173C1490.06 362.024 1490.3 365.351 1490.3 369.153C1494.81 364.638 1504.67 355.727 1519.88 342.42H1518.81C1504.32 353.589 1494.58 359.173 1489.58 359.173ZM1606.14 344.202C1606.14 345.153 1605.55 346.222 1604.36 347.41V348.479C1605.31 348.479 1606.26 348.955 1607.21 349.905V349.192L1606.86 344.202H1606.14ZM1170.92 347.41V349.905C1172.82 349.192 1173.77 348.361 1173.77 347.41H1170.92ZM1479.25 352.4L1480.67 353.47C1480.67 352.757 1480.91 351.925 1481.39 350.975H1480.67C1479.72 350.975 1479.25 351.45 1479.25 352.4ZM1415.09 354.896C1414.85 355.846 1401.9 364.52 1376.24 380.916V381.629H1376.95L1416.87 355.965V354.896H1415.09ZM1304.59 369.153C1305.3 373.193 1306.37 375.451 1307.8 375.926C1307.8 374.5 1312.67 368.916 1322.41 359.173C1313.38 365.826 1307.44 369.153 1304.59 369.153ZM1569.07 395.887V396.6H1570.85C1583.45 385.431 1594.62 378.54 1604.36 375.926L1608.99 378.421V376.639C1608.99 374.975 1608.76 369.391 1608.28 359.886C1595.21 374.856 1582.14 386.857 1569.07 395.887ZM1491.72 387.332V398.382H1492.44C1503.37 387.688 1515.49 376.876 1528.79 365.945C1509.55 380.203 1497.19 387.332 1491.72 387.332ZM1215.83 367.371C1194.21 384.48 1178.88 393.629 1169.85 394.817H1167V395.887C1166.76 402.778 1166.65 406.937 1166.65 408.362C1198.01 381.748 1214.88 368.44 1217.26 368.44V367.371H1215.83ZM1372.67 383.411V384.124H1374.1V383.411H1372.67ZM1185.54 547.02V548.089H1187.68V546.307C1186.73 546.782 1186.01 547.02 1185.54 547.02ZM1272.51 548.089H1276.79V545.594C1273.94 546.069 1272.51 546.901 1272.51 548.089ZM1156.67 545.594V548.089H1159.87V545.594H1156.67ZM1606.14 548.089H1621.47C1620.99 545 1620.76 541.673 1620.76 538.108C1615.29 540.009 1610.42 543.336 1606.14 548.089ZM1397.62 538.821H1399.05C1400 538.821 1400.47 538.227 1400.47 537.039V536.326C1398.57 537.039 1397.62 537.871 1397.62 538.821ZM1158.45 519.573C1161.77 516.959 1163.44 515.296 1163.44 514.583C1160.11 514.583 1158.45 516.246 1158.45 519.573ZM1403.33 521.355L1407.25 522.068C1407.25 521.831 1408.43 518.504 1410.81 512.088C1410.34 512.088 1407.84 515.177 1403.33 521.355ZM1372.67 526.346C1375.52 532.524 1376.95 536.089 1376.95 537.039H1378.73C1378.73 534.9 1384.79 525.752 1396.91 509.593C1387.88 516.722 1379.8 522.306 1372.67 526.346ZM1264.31 525.633H1265.02C1268.59 522.781 1271.56 521.355 1273.94 521.355L1278.21 523.851V521.355C1278.21 517.791 1278.57 512.207 1279.28 504.603C1269.3 518.147 1264.31 525.158 1264.31 525.633ZM1617.19 503.177C1615.05 506.979 1613.27 508.88 1611.85 508.88V509.593C1614.93 509.593 1617.07 510.187 1618.26 511.375V504.603C1618.26 503.652 1617.91 503.177 1617.19 503.177ZM1276.07 488.919C1276.55 489.394 1277.74 489.632 1279.64 489.632L1280.35 483.929C1279.88 483.929 1278.45 485.592 1276.07 488.919ZM1498.5 498.187V508.167H1499.21C1506.34 501.038 1517.15 491.295 1531.65 478.938C1514.06 491.771 1503.01 498.187 1498.5 498.187ZM1596.16 498.187C1603.53 493.196 1608.76 490.701 1611.85 490.701H1615.05L1617.19 492.127V491.414C1617.19 488.562 1616.84 483.81 1616.12 477.156C1613.51 480.958 1606.86 487.968 1596.16 498.187ZM1278.21 470.74C1279.16 470.74 1280.23 471.215 1281.42 472.166V467.176C1280.47 467.176 1279.4 468.364 1278.21 470.74ZM1613.27 459.69L1615.05 460.76V458.265C1613.87 458.265 1613.27 458.74 1613.27 459.69ZM1160.59 487.137C1170.57 477.394 1189.93 460.76 1218.69 437.234C1187.79 460.997 1168.9 473.235 1162.01 473.948L1160.59 487.137ZM1333.46 436.521C1334.17 438.66 1334.89 439.729 1335.6 439.729C1335.6 439.017 1336.19 437.947 1337.38 436.521H1333.46ZM1164.15 436.165V441.512C1166.53 439.135 1168.43 437.353 1169.85 436.165H1164.15ZM1172.35 434.739V434.026L1167 434.739H1172.35ZM1350.93 477.156C1354.02 483.572 1355.56 487.256 1355.56 488.206H1356.63C1368.51 474.899 1388.59 456.007 1416.87 431.531C1386.45 455.057 1364.47 470.265 1350.93 477.156ZM1496.36 466.463C1496.83 473.354 1497.07 477.513 1497.07 478.938C1509.9 466.344 1528.08 450.304 1551.61 430.818C1520.95 454.581 1502.54 466.463 1496.36 466.463ZM1416.87 448.997C1427.33 441.155 1434.45 437.234 1438.26 437.234L1443.25 439.017C1449.66 424.996 1452.87 417.511 1452.87 416.561H1452.16L1416.87 448.997ZM1494.58 436.165V443.294L1502.42 436.165H1494.58ZM1504.2 434.739L1526.66 414.778C1509.78 427.135 1498.97 433.313 1494.22 433.313V434.739H1504.2ZM1222.96 450.779C1254.09 426.779 1272.87 414.778 1279.28 414.778C1281.18 415.491 1282.85 415.848 1284.27 415.848C1284.75 412.996 1285.22 406.342 1285.7 395.887C1270.97 410.857 1250.05 429.155 1222.96 450.779ZM1609.71 393.392C1601.15 404.798 1585.59 419.412 1563.01 437.234C1556.36 442.938 1553.03 446.027 1553.03 446.502C1583.45 423.214 1601.39 411.57 1606.86 411.57C1608.04 411.57 1609.71 412.402 1611.85 414.065L1610.42 393.392H1609.71ZM1217.97 77.9375H1209.06C1209.06 80.0762 1207.64 84.2347 1204.79 90.4131C1210.96 85.6605 1215.36 82.4525 1217.97 80.7891V77.9375ZM1220.11 79.3633C1220.35 79.1257 1220.59 79.0068 1220.83 79.0068V77.9375H1220.11V79.3633ZM1250.41 77.9375C1250.41 82.4525 1242.57 92.4329 1226.88 107.879C1250.17 90.2943 1263.6 81.502 1267.16 81.502H1268.59L1272.51 82.2148C1271.56 80.3138 1271.08 78.888 1271.08 77.9375H1250.41ZM1506.69 77.9375C1506.69 78.1751 1506.34 79.3633 1505.62 81.502C1508 80.3138 1509.31 79.1257 1509.55 77.9375H1506.69ZM1275.36 89.7002C1275.36 91.126 1274.89 92.5518 1273.94 93.9775V94.6904L1278.21 95.4033V94.6904C1277.26 91.3636 1276.31 89.7002 1275.36 89.7002ZM1281.42 103.958C1281.42 109.899 1263.36 127.84 1227.24 157.781L1220.11 165.267C1258.37 135.325 1280.71 120.354 1287.12 120.354C1287.84 121.067 1288.91 121.424 1290.33 121.424V120.354C1288.67 117.741 1286.05 112.275 1282.49 103.958H1281.42ZM1488.87 117.146C1488.87 117.384 1488.63 118.453 1488.16 120.354C1490.3 119.404 1491.49 118.335 1491.72 117.146H1488.87ZM1186.25 122.85V129.622C1186.73 129.622 1190.65 125.701 1198.01 117.859H1197.3C1193.5 120.949 1189.81 122.612 1186.25 122.85ZM1590.46 123.919C1589.27 128.196 1581.19 136.513 1566.22 148.87C1562.42 151.722 1559.92 153.385 1558.74 153.86V154.573H1560.16C1571.81 145.306 1581.19 140.553 1588.32 140.315L1592.95 142.811C1591.77 132.592 1591.17 126.295 1591.17 123.919H1590.46ZM1293.54 129.622C1293.54 131.048 1292.59 132.949 1290.69 135.325V136.395C1291.64 135.682 1292.47 135.325 1293.18 135.325L1296.75 136.395V135.325C1295.32 132.711 1294.61 130.81 1294.61 129.622H1293.54ZM1217.97 148.514C1199.91 162.059 1188.86 168.831 1184.82 168.831H1183.4C1182.92 174.297 1182.69 178.455 1182.69 181.307V182.732L1217.97 150.296V148.514ZM1220.11 148.514L1229.74 139.603C1226.41 142.216 1223.2 144.712 1220.11 147.088V148.514ZM1472.48 153.86H1472.12L1466.06 168.831L1500.63 139.603C1487.8 149.108 1478.42 153.86 1472.48 153.86ZM1256.83 191.287C1284.15 171.326 1300.43 161.346 1305.66 161.346H1308.51C1303.76 150.415 1301.38 144.593 1301.38 143.88H1300.31C1300.31 150.058 1284.75 165.861 1253.62 191.287H1256.83ZM1252.19 192.713C1247.68 196.277 1243.04 199.961 1238.29 203.763C1226.65 213.268 1220.83 218.258 1220.83 218.733C1233.66 208.753 1245.06 200.079 1255.04 192.713H1252.19ZM1312.43 169.544C1312.19 175.96 1300.55 188.198 1277.5 206.258H1278.21C1297.46 191.762 1309.94 184.515 1315.64 184.515L1319.56 185.228C1315.05 175.722 1312.79 170.494 1312.79 169.544H1312.43ZM1582.97 180.237V181.307L1588.32 180.237H1590.46C1592.12 180.237 1593.9 181.069 1595.81 182.732L1594.02 169.544C1587.85 176.673 1584.16 180.237 1582.97 180.237ZM1231.52 192.713C1203.24 214.337 1185.66 225.149 1178.76 225.149V229.427L1178.05 239.407C1187.79 230.14 1205.74 214.575 1231.88 192.713H1231.52ZM1233.66 191.287C1235.08 190.099 1236.51 188.911 1237.93 187.723C1236.27 188.911 1234.73 190.099 1233.3 191.287H1233.66ZM1322.41 193.782C1322.41 198.297 1318.02 203.763 1309.22 210.179V211.248H1309.94C1316.11 207.208 1320.75 205.188 1323.84 205.188H1325.62L1329.18 206.258C1325.62 198.654 1323.84 194.495 1323.84 193.782H1322.41ZM1596.16 208.753C1596.16 208.991 1596.04 210.06 1595.81 211.961L1597.94 213.743L1597.23 208.753H1596.16ZM1332.04 213.743C1332.04 217.545 1329.3 221.941 1323.84 226.932H1324.55C1327.16 225.268 1330.49 224.437 1334.53 224.437L1337.74 225.149C1334.41 218.258 1332.75 214.456 1332.75 213.743H1332.04ZM1438.26 229.427H1438.97C1450.14 219.922 1456.2 215.169 1457.15 215.169V214.456H1455.72C1451.92 216.595 1447.52 218.021 1442.53 218.733C1442.53 219.684 1441.11 223.248 1438.26 229.427ZM1594.02 234.417L1598.66 236.912H1599.37V236.199L1598.66 228.714C1598.18 228.714 1596.64 230.615 1594.02 234.417ZM1178.76 260.081H1176.63V261.15L1175.91 271.131L1201.93 248.675C1190.53 256.279 1182.8 260.081 1178.76 260.081ZM1599.37 249.388V251.17H1600.08V249.388H1599.37ZM1600.08 263.646C1600.08 264.596 1596.88 268.398 1590.46 275.052H1591.17L1597.23 273.626L1602.22 276.121L1601.51 271.844V265.071C1601.51 264.121 1601.03 263.646 1600.08 263.646ZM1356.99 269.349C1356.99 276.478 1343.8 289.785 1317.42 309.271C1293.9 327.33 1268.11 346.222 1240.07 365.945V366.658H1240.79C1247.44 362.856 1273.46 343.965 1318.85 309.983C1341.18 294.062 1355.44 286.102 1361.62 286.102L1365.9 287.527V286.814C1361.62 276.359 1358.65 270.537 1356.99 269.349ZM1412.95 283.606C1411.52 286.696 1410.81 288.597 1410.81 289.31C1414.85 286.696 1416.87 285.032 1416.87 284.319L1412.95 283.606ZM1552.32 288.597C1553.27 288.121 1554.22 287.527 1555.17 286.814V286.102H1553.75L1552.32 287.171V288.597ZM1550.89 287.884L1500.63 321.746V322.459H1502.42C1503.13 321.508 1519.29 310.577 1550.89 289.666V287.884ZM1602.22 286.102C1598.89 292.28 1590.58 300.835 1577.27 311.766C1570.85 316.756 1567.65 319.489 1567.65 319.964C1583.81 308.32 1593.9 302.498 1597.94 302.498H1599.37C1600.8 302.498 1602.34 303.092 1604 304.28V303.567C1603.29 293.825 1602.93 288.003 1602.93 286.102H1602.22ZM1176.63 291.805H1174.49V295.013L1173.77 299.29C1179.95 293.825 1183.4 291.092 1184.11 291.092V290.022H1183.4C1180.07 291.211 1177.81 291.805 1176.63 291.805ZM1360.91 191.287H1418.3V192.713H1360.91V191.287ZM1552.32 113.938V117.859C1569.9 105.74 1580.83 99.6807 1585.11 99.6807L1589.75 102.176C1588.8 90.5319 1588.32 82.4525 1588.32 77.9375H1584.76C1584.76 84.8288 1573.94 96.8291 1552.32 113.938ZM1552.32 77.9375V85.0664C1556.6 82.2148 1559.8 80.195 1561.94 79.0068V77.9375H1552.32ZM1550.89 86.1357V77.9375H1545.55C1545.55 83.403 1538.54 92.3141 1524.52 104.671C1522.38 106.334 1521.31 107.404 1521.31 107.879C1533.9 98.3737 1543.76 91.126 1550.89 86.1357ZM1550.89 115.364C1547.8 117.741 1544.48 120.236 1540.91 122.85L1502.77 154.573C1522.26 139.603 1538.3 127.721 1550.89 118.929V115.364ZM1613.27 436.165H1601.87C1594.02 444.007 1584.64 452.443 1573.71 461.473C1592.24 447.69 1604 440.799 1608.99 440.799C1610.66 440.799 1612.32 441.631 1613.98 443.294C1613.75 442.106 1613.51 439.729 1613.27 436.165ZM1550.89 520.999V519.93C1530.69 535.138 1517.39 544.168 1510.97 547.02V548.089H1527.37C1527.37 544.524 1535.21 535.494 1550.89 520.999ZM1217.97 548.089V543.099C1214.17 545.713 1212.15 547.02 1211.91 547.02V548.089H1217.97ZM1552.32 546.663V548.089H1558.02C1558.02 546.901 1559.57 544.049 1562.66 539.534C1557.43 543.336 1553.98 545.713 1552.32 546.663ZM1608.28 70.0957H1662.1V1.30176H1663.53V626.15H1662.1V557.356H1630.38V558.069C1630.38 564.248 1630.86 572.208 1631.81 581.951C1630.14 583.139 1628.6 583.733 1627.17 583.733H1625.03C1623.85 583.733 1622.9 574.941 1622.18 557.356H1552.32V626.15H1550.89V557.356H1501.35C1502.06 561.159 1502.77 572.684 1503.49 591.932C1502.77 592.645 1500.63 593.239 1497.07 593.714C1496.12 592.288 1495.64 591.219 1495.64 590.506C1494.69 571.02 1494.22 559.97 1494.22 557.356H1441.82V625.438C1441.82 626.388 1441.35 626.863 1440.4 626.863L1439.68 625.438V557.356H1381.94L1378.73 558.782C1378.49 558.307 1378.26 557.832 1378.02 557.356H1330.61V626.15H1329.18V557.356H1284.27C1283.8 557.594 1283.56 558.069 1283.56 558.782C1282.85 578.03 1282.13 589.08 1281.42 591.932C1277.38 591.456 1274.89 590.981 1273.94 590.506C1274.41 585.278 1275.12 574.228 1276.07 557.356H1220.11V625.438C1220.11 626.388 1219.64 626.863 1218.69 626.863L1217.97 625.438V557.356H1155.95C1155.71 557.594 1155.6 558.069 1155.6 558.782L1153.1 598.704L1150.96 600.486H1146.68C1145.5 600.486 1144.9 599.892 1144.9 598.704C1144.9 595.853 1145.85 582.07 1147.75 557.356H1109.26V555.218H1129.58V550.584C1129.81 549.396 1130.29 548.802 1131 548.802H1147.4C1148.35 548.802 1148.82 547.97 1148.82 546.307C1151.44 507.335 1153.93 470.621 1156.31 436.165H1109.26V434.739H1156.67C1159.52 391.015 1162.25 350.975 1164.86 314.617H1109.26V312.835H1165.22C1168.55 266.972 1171.4 226.932 1173.77 192.713H1109.26V191.287H1173.77C1177.34 140.197 1180.07 102.413 1181.97 77.9375H1167.71C1167 77.9375 1166.65 77.4622 1166.65 76.5117V72.2344H1109.26V70.0957H1166.65C1166.65 69.3828 1167 69.0264 1167.71 69.0264H1182.69C1183.4 46.6891 1184.59 35.5205 1186.25 35.5205H1189.81C1190.76 35.5205 1191.48 36.3522 1191.95 38.0156C1191.72 51.0853 1191 61.4222 1189.81 69.0264H1217.97V2.01465C1217.97 1.06413 1218.45 0.588867 1219.4 0.588867L1220.11 2.01465V69.0264H1266.45L1257.18 47.2832C1260.51 45.1445 1262.65 44.0752 1263.6 44.0752C1271.2 60.4717 1275.36 68.7887 1276.07 69.0264H1309.94C1310.65 69.0264 1311.12 69.3828 1311.36 70.0957H1329.18V1.30176H1330.61V70.0957H1427.92C1428.87 70.0957 1429.35 70.571 1429.35 71.5215L1427.92 72.2344H1330.61V170.97H1329.18V72.2344H1311.36V76.5117C1311.36 77.4622 1310.89 77.9375 1309.94 77.9375H1279.64C1327.64 183.921 1364 263.527 1388.71 316.756H1389.78C1389.78 315.805 1395.13 303.567 1405.82 280.042C1465.23 150.296 1495.88 82.9277 1497.78 77.9375H1464.63C1463.68 77.9375 1463.21 77.4622 1463.21 76.5117V72.2344H1444.67C1443.72 72.2344 1443.25 71.7591 1443.25 70.8086L1444.67 70.0957H1463.21C1463.45 69.3828 1463.92 69.0264 1464.63 69.0264H1502.77C1506.1 59.5212 1508.6 54.7686 1510.26 54.7686C1512.64 56.432 1514.42 57.2637 1515.61 57.2637V57.9766C1515.61 59.64 1514.06 63.3232 1510.97 69.0264H1550.89V1.30176H1552.32V69.0264H1587.61L1586.18 51.5605L1587.61 50.4912H1594.02C1594.74 59.0459 1595.09 64.8678 1595.09 67.957L1596.16 69.0264H1606.86C1607.57 69.0264 1608.04 69.3828 1608.28 70.0957ZM1641.43 555.218H1662.1V436.165H1621.47C1623.85 471.81 1626.46 509.355 1629.31 548.802H1640C1640.96 549.039 1641.43 549.633 1641.43 550.584V555.218ZM1621.11 434.739H1662.1V314.617H1612.56C1615.17 351.688 1618.02 391.728 1621.11 434.739ZM1612.56 312.835H1662.1V192.713H1604C1606.62 228.595 1609.47 268.636 1612.56 312.835ZM1604 191.287H1662.1V72.2344H1608.28V76.5117C1608.28 77.4622 1607.81 77.9375 1606.86 77.9375H1596.16C1598.3 109.305 1600.91 147.088 1604 191.287ZM1469.27 555.218V550.584C1469.27 549.396 1469.62 548.802 1470.34 548.802H1493.51L1486.38 436.165H1484.24V434.739H1486.38L1482.46 370.936H1481.39C1472.12 393.035 1447.88 448.997 1408.67 538.821H1416.16C1416.87 539.059 1417.23 539.653 1417.23 540.604V546.307C1417.23 547.495 1416.87 548.089 1416.16 548.089H1404.04C1404.04 550.703 1403.09 552.01 1401.19 552.01C1397.38 549.871 1395.25 548.564 1394.77 548.089H1381.94V548.802C1383.36 551.416 1384.08 553.554 1384.08 555.218H1439.68V516.365C1439.68 515.177 1440.16 514.583 1441.11 514.583L1441.82 516.365V555.218H1469.27ZM1376.95 555.218C1374.33 550.465 1372.91 548.089 1372.67 548.089H1359.48C1358.29 548.089 1357.7 547.495 1357.7 546.307V540.604C1357.94 539.415 1358.53 538.821 1359.48 538.821H1368.75V538.108C1320.27 427.373 1296.04 371.292 1296.04 369.866H1295.32C1288.43 482.741 1284.99 542.386 1284.99 548.802H1300.31C1301.26 549.039 1301.74 549.633 1301.74 550.584V555.218H1329.18V461.116H1330.61V555.218H1376.95ZM1220.11 548.089H1235.44C1235.44 545 1242.81 533.593 1257.54 513.87V513.157C1239.95 526.465 1227.48 535.851 1220.11 541.316V548.089ZM1552.32 519.573C1553.75 518.385 1555.17 517.078 1556.6 515.652C1555.17 516.84 1553.75 517.91 1552.32 518.86V519.573ZM1613.27 434.739C1613.03 431.888 1612.8 428.561 1612.56 424.759C1609.71 428.086 1606.62 431.412 1603.29 434.739H1613.27ZM1441.11 0.588867L1441.82 2.01465V69.3828C1441.82 70.3333 1441.35 70.8086 1440.4 70.8086L1439.68 69.3828V2.01465C1439.68 1.06413 1440.16 0.588867 1441.11 0.588867ZM1744.44 77.9375V79.7197C1745.63 79.2445 1746.34 79.0068 1746.58 79.0068V77.9375H1744.44ZM1928.73 304.993C1928.73 306.894 1928.37 308.32 1927.66 309.271H1930.86C1929.91 307.369 1929.44 305.944 1929.44 304.993H1928.73ZM1850.66 308.558L1787.57 354.896V355.965H1788.64C1795.06 350.499 1816.21 334.935 1852.09 309.271V308.558H1850.66ZM2117.64 354.183C2137.84 339.212 2150.2 331.727 2154.71 331.727H2156.14C2157.56 331.727 2159.11 332.321 2160.77 333.509V332.439C2160.06 326.499 2159.7 321.271 2159.7 316.756V316.043H2158.99C2147.82 328.162 2134.04 340.875 2117.64 354.183ZM1933.72 316.756C1933.72 320.083 1930.98 324.835 1925.52 331.014H1926.59C1933.95 326.974 1937.64 324.716 1937.64 324.241C1935.5 320.201 1934.43 317.706 1934.43 316.756H1933.72ZM2044.93 344.202V345.984H2046C2052.41 342.182 2063.58 334.697 2079.5 323.528V322.459H2079.15C2057.28 336.954 2045.88 344.202 2044.93 344.202ZM2044.21 359.173C2044.69 362.024 2044.93 365.351 2044.93 369.153C2049.44 364.638 2059.3 355.727 2074.51 342.42H2073.44C2058.95 353.589 2049.2 359.173 2044.21 359.173ZM2160.77 344.202C2160.77 345.153 2160.18 346.222 2158.99 347.41V348.479C2159.94 348.479 2160.89 348.955 2161.84 349.905V349.192L2161.48 344.202H2160.77ZM1725.55 347.41V349.905C1727.45 349.192 1728.4 348.361 1728.4 347.41H1725.55ZM2033.88 352.4L2035.3 353.47C2035.3 352.757 2035.54 351.925 2036.02 350.975H2035.3C2034.35 350.975 2033.88 351.45 2033.88 352.4ZM1969.72 354.896C1969.48 355.846 1956.53 364.52 1930.86 380.916V381.629H1931.58L1971.5 355.965V354.896H1969.72ZM1859.22 369.153C1859.93 373.193 1861 375.451 1862.43 375.926C1862.43 374.5 1867.3 368.916 1877.04 359.173C1868.01 365.826 1862.07 369.153 1859.22 369.153ZM2123.7 395.887V396.6H2125.48C2138.08 385.431 2149.25 378.54 2158.99 375.926L2163.62 378.421V376.639C2163.62 374.975 2163.39 369.391 2162.91 359.886C2149.84 374.856 2136.77 386.857 2123.7 395.887ZM2046.35 387.332V398.382H2047.07C2058 387.688 2070.12 376.876 2083.42 365.945C2064.17 380.203 2051.82 387.332 2046.35 387.332ZM1770.46 367.371C1748.84 384.48 1733.51 393.629 1724.48 394.817H1721.63V395.887C1721.39 402.778 1721.27 406.937 1721.27 408.362C1752.64 381.748 1769.51 368.44 1771.89 368.44V367.371H1770.46ZM1927.3 383.411V384.124H1928.73V383.411H1927.3ZM1740.17 547.02V548.089H1742.3V546.307C1741.35 546.782 1740.64 547.02 1740.17 547.02ZM1827.14 548.089H1831.42V545.594C1828.56 546.069 1827.14 546.901 1827.14 548.089ZM1711.29 545.594V548.089H1714.5V545.594H1711.29ZM2160.77 548.089H2176.1C2175.62 545 2175.39 541.673 2175.39 538.108C2169.92 540.009 2165.05 543.336 2160.77 548.089ZM1952.25 538.821H1953.68C1954.63 538.821 1955.1 538.227 1955.1 537.039V536.326C1953.2 537.039 1952.25 537.871 1952.25 538.821ZM1713.08 519.573C1716.4 516.959 1718.07 515.296 1718.07 514.583C1714.74 514.583 1713.08 516.246 1713.08 519.573ZM1957.95 521.355L1961.88 522.068C1961.88 521.831 1963.06 518.504 1965.44 512.088C1964.96 512.088 1962.47 515.177 1957.95 521.355ZM1927.3 526.346C1930.15 532.524 1931.58 536.089 1931.58 537.039H1933.36C1933.36 534.9 1939.42 525.752 1951.54 509.593C1942.51 516.722 1934.43 522.306 1927.3 526.346ZM1818.94 525.633H1819.65C1823.22 522.781 1826.19 521.355 1828.56 521.355L1832.84 523.851V521.355C1832.84 517.791 1833.2 512.207 1833.91 504.603C1823.93 518.147 1818.94 525.158 1818.94 525.633ZM2171.82 503.177C2169.68 506.979 2167.9 508.88 2166.47 508.88V509.593C2169.56 509.593 2171.7 510.187 2172.89 511.375V504.603C2172.89 503.652 2172.53 503.177 2171.82 503.177ZM1830.7 488.919C1831.18 489.394 1832.37 489.632 1834.27 489.632L1834.98 483.929C1834.51 483.929 1833.08 485.592 1830.7 488.919ZM2053.12 498.187V508.167H2053.84C2060.97 501.038 2071.78 491.295 2086.27 478.938C2068.69 491.771 2057.64 498.187 2053.12 498.187ZM2150.79 498.187C2158.16 493.196 2163.39 490.701 2166.47 490.701H2169.68L2171.82 492.127V491.414C2171.82 488.562 2171.46 483.81 2170.75 477.156C2168.14 480.958 2161.48 487.968 2150.79 498.187ZM1832.84 470.74C1833.79 470.74 1834.86 471.215 1836.05 472.166V467.176C1835.1 467.176 1834.03 468.364 1832.84 470.74ZM2167.9 459.69L2169.68 460.76V458.265C2168.49 458.265 2167.9 458.74 2167.9 459.69ZM1715.21 487.137C1725.2 477.394 1744.56 460.76 1773.32 437.234C1742.42 460.997 1723.53 473.235 1716.64 473.948L1715.21 487.137ZM1888.09 436.521C1888.8 438.66 1889.52 439.729 1890.23 439.729C1890.23 439.017 1890.82 437.947 1892.01 436.521H1888.09ZM1718.78 436.165V441.512C1721.16 439.135 1723.06 437.353 1724.48 436.165H1718.78ZM1726.98 434.739V434.026L1721.63 434.739H1726.98ZM1905.56 477.156C1908.65 483.572 1910.19 487.256 1910.19 488.206H1911.26C1923.14 474.899 1943.22 456.007 1971.5 431.531C1941.08 455.057 1919.1 470.265 1905.56 477.156ZM2050.99 466.463C2051.46 473.354 2051.7 477.513 2051.7 478.938C2064.53 466.344 2082.71 450.304 2106.24 430.818C2075.58 454.581 2057.16 466.463 2050.99 466.463ZM1971.5 448.997C1981.95 441.155 1989.08 437.234 1992.89 437.234L1997.88 439.017C2004.29 424.996 2007.5 417.511 2007.5 416.561H2006.79L1971.5 448.997ZM2049.2 436.165V443.294L2057.05 436.165H2049.2ZM2058.83 434.739L2081.28 414.778C2064.41 427.135 2053.6 433.313 2048.85 433.313V434.739H2058.83ZM1777.59 450.779C1808.72 426.779 1827.5 414.778 1833.91 414.778C1835.81 415.491 1837.48 415.848 1838.9 415.848C1839.38 412.996 1839.85 406.342 1840.33 395.887C1825.59 410.857 1804.68 429.155 1777.59 450.779ZM2164.34 393.392C2155.78 404.798 2140.22 419.412 2117.64 437.234C2110.99 442.938 2107.66 446.027 2107.66 446.502C2138.08 423.214 2156.02 411.57 2161.48 411.57C2162.67 411.57 2164.34 412.402 2166.47 414.065L2165.05 393.392H2164.34ZM1772.6 77.9375H1763.69C1763.69 80.0762 1762.27 84.2347 1759.41 90.4131C1765.59 85.6605 1769.99 82.4525 1772.6 80.7891V77.9375ZM1774.74 79.3633C1774.98 79.1257 1775.22 79.0068 1775.45 79.0068V77.9375H1774.74V79.3633ZM1805.04 77.9375C1805.04 82.4525 1797.2 92.4329 1781.51 107.879C1804.8 90.2943 1818.23 81.502 1821.79 81.502H1823.22L1827.14 82.2148C1826.19 80.3138 1825.71 78.888 1825.71 77.9375H1805.04ZM2061.32 77.9375C2061.32 78.1751 2060.97 79.3633 2060.25 81.502C2062.63 80.3138 2063.94 79.1257 2064.17 77.9375H2061.32ZM1829.99 89.7002C1829.99 91.126 1829.51 92.5518 1828.56 93.9775V94.6904L1832.84 95.4033V94.6904C1831.89 91.3636 1830.94 89.7002 1829.99 89.7002ZM1836.05 103.958C1836.05 109.899 1817.99 127.84 1781.87 157.781L1774.74 165.267C1813 135.325 1835.34 120.354 1841.75 120.354C1842.47 121.067 1843.54 121.424 1844.96 121.424V120.354C1843.3 117.741 1840.68 112.275 1837.12 103.958H1836.05ZM2043.5 117.146C2043.5 117.384 2043.26 118.453 2042.79 120.354C2044.93 119.404 2046.11 118.335 2046.35 117.146H2043.5ZM1740.88 122.85V129.622C1741.35 129.622 1745.28 125.701 1752.64 117.859H1751.93C1748.13 120.949 1744.44 122.612 1740.88 122.85ZM2145.09 123.919C2143.9 128.196 2135.82 136.513 2120.85 148.87C2117.05 151.722 2114.55 153.385 2113.36 153.86V154.573H2114.79C2126.43 145.306 2135.82 140.553 2142.95 140.315L2147.58 142.811C2146.39 132.592 2145.8 126.295 2145.8 123.919H2145.09ZM1848.17 129.622C1848.17 131.048 1847.22 132.949 1845.32 135.325V136.395C1846.27 135.682 1847.1 135.325 1847.81 135.325L1851.38 136.395V135.325C1849.95 132.711 1849.24 130.81 1849.24 129.622H1848.17ZM1772.6 148.514C1754.54 162.059 1743.49 168.831 1739.45 168.831H1738.03C1737.55 174.297 1737.31 178.455 1737.31 181.307V182.732L1772.6 150.296V148.514ZM1774.74 148.514L1784.37 139.603C1781.04 142.216 1777.83 144.712 1774.74 147.088V148.514ZM2027.1 153.86H2026.75L2020.69 168.831L2055.26 139.603C2042.43 149.108 2033.05 153.86 2027.1 153.86ZM1811.46 191.287C1838.78 171.326 1855.06 161.346 1860.29 161.346H1863.14C1858.39 150.415 1856.01 144.593 1856.01 143.88H1854.94C1854.94 150.058 1839.38 165.861 1808.25 191.287H1811.46ZM1806.82 192.713C1802.31 196.277 1797.67 199.961 1792.92 203.763C1781.28 213.268 1775.45 218.258 1775.45 218.733C1788.29 208.753 1799.69 200.079 1809.67 192.713H1806.82ZM1867.06 169.544C1866.82 175.96 1855.18 188.198 1832.13 206.258H1832.84C1852.09 191.762 1864.57 184.515 1870.27 184.515L1874.19 185.228C1869.67 175.722 1867.42 170.494 1867.42 169.544H1867.06ZM2137.6 180.237V181.307L2142.95 180.237H2145.09C2146.75 180.237 2148.53 181.069 2150.43 182.732L2148.65 169.544C2142.47 176.673 2138.79 180.237 2137.6 180.237ZM1786.15 192.713C1757.87 214.337 1740.28 225.149 1733.39 225.149V229.427L1732.68 239.407C1742.42 230.14 1760.36 214.575 1786.5 192.713H1786.15ZM1788.29 191.287C1789.71 190.099 1791.14 188.911 1792.56 187.723C1790.9 188.911 1789.36 190.099 1787.93 191.287H1788.29ZM1877.04 193.782C1877.04 198.297 1872.64 203.763 1863.85 210.179V211.248H1864.57C1870.74 207.208 1875.38 205.188 1878.47 205.188H1880.25L1883.81 206.258C1880.25 198.654 1878.47 194.495 1878.47 193.782H1877.04ZM2150.79 208.753C2150.79 208.991 2150.67 210.06 2150.43 211.961L2152.57 213.743L2151.86 208.753H2150.79ZM1886.67 213.743C1886.67 217.545 1883.93 221.941 1878.47 226.932H1879.18C1881.79 225.268 1885.12 224.437 1889.16 224.437L1892.37 225.149C1889.04 218.258 1887.38 214.456 1887.38 213.743H1886.67ZM1992.89 229.427H1993.6C2004.77 219.922 2010.83 215.169 2011.78 215.169V214.456H2010.35C2006.55 216.595 2002.15 218.021 1997.16 218.733C1997.16 219.684 1995.74 223.248 1992.89 229.427ZM2148.65 234.417L2153.29 236.912H2154V236.199L2153.29 228.714C2152.81 228.714 2151.27 230.615 2148.65 234.417ZM1733.39 260.081H1731.25V261.15L1730.54 271.131L1756.56 248.675C1745.16 256.279 1737.43 260.081 1733.39 260.081ZM2154 249.388V251.17H2154.71V249.388H2154ZM2154.71 263.646C2154.71 264.596 2151.5 268.398 2145.09 275.052H2145.8L2151.86 273.626L2156.85 276.121L2156.14 271.844V265.071C2156.14 264.121 2155.66 263.646 2154.71 263.646ZM1911.62 269.349C1911.62 276.478 1898.43 289.785 1872.05 309.271C1848.53 327.33 1822.74 346.222 1794.7 365.945V366.658H1795.42C1802.07 362.856 1828.09 343.965 1873.48 309.983C1895.81 294.062 1910.07 286.102 1916.25 286.102L1920.53 287.527V286.814C1916.25 276.359 1913.28 270.537 1911.62 269.349ZM1967.58 283.606C1966.15 286.696 1965.44 288.597 1965.44 289.31C1969.48 286.696 1971.5 285.032 1971.5 284.319L1967.58 283.606ZM2106.95 288.597C2107.9 288.121 2108.85 287.527 2109.8 286.814V286.102H2108.37L2106.95 287.171V288.597ZM2105.52 287.884L2055.26 321.746V322.459H2057.05C2057.76 321.508 2073.92 310.577 2105.52 289.666V287.884ZM2156.85 286.102C2153.52 292.28 2145.21 300.835 2131.9 311.766C2125.48 316.756 2122.28 319.489 2122.28 319.964C2138.43 308.32 2148.53 302.498 2152.57 302.498H2154C2155.42 302.498 2156.97 303.092 2158.63 304.28V303.567C2157.92 293.825 2157.56 288.003 2157.56 286.102H2156.85ZM1731.25 291.805H1729.12V295.013L1728.4 299.29C1734.58 293.825 1738.03 291.092 1738.74 291.092V290.022H1738.03C1734.7 291.211 1732.44 291.805 1731.25 291.805ZM1915.54 191.287H1972.92V192.713H1915.54V191.287ZM2106.95 113.938V117.859C2124.53 105.74 2135.46 99.6807 2139.74 99.6807L2144.38 102.176C2143.42 90.5319 2142.95 82.4525 2142.95 77.9375H2139.38C2139.38 84.8288 2128.57 96.8291 2106.95 113.938ZM2106.95 77.9375V85.0664C2111.23 82.2148 2114.43 80.195 2116.57 79.0068V77.9375H2106.95ZM2105.52 86.1357V77.9375H2100.18C2100.18 83.403 2093.17 92.3141 2079.15 104.671C2077.01 106.334 2075.94 107.404 2075.94 107.879C2088.53 98.3737 2098.39 91.126 2105.52 86.1357ZM2105.52 115.364C2102.43 117.741 2099.11 120.236 2095.54 122.85L2057.4 154.573C2076.89 139.603 2092.93 127.721 2105.52 118.929V115.364ZM2167.9 436.165H2156.49C2148.65 444.007 2139.27 452.443 2128.33 461.473C2146.87 447.69 2158.63 440.799 2163.62 440.799C2165.29 440.799 2166.95 441.631 2168.61 443.294C2168.38 442.106 2168.14 439.729 2167.9 436.165ZM2105.52 520.999V519.93C2085.32 535.138 2072.02 544.168 2065.6 547.02V548.089H2082C2082 544.524 2089.84 535.494 2105.52 520.999ZM1772.6 548.089V543.099C1768.8 545.713 1766.78 547.02 1766.54 547.02V548.089H1772.6ZM2106.95 546.663V548.089H2112.65C2112.65 546.901 2114.2 544.049 2117.29 539.534C2112.06 543.336 2108.61 545.713 2106.95 546.663ZM2162.91 70.0957H2216.73V1.30176H2218.16V626.15H2216.73V557.356H2185.01V558.069C2185.01 564.248 2185.49 572.208 2186.44 581.951C2184.77 583.139 2183.23 583.733 2181.8 583.733H2179.66C2178.47 583.733 2177.52 574.941 2176.81 557.356H2106.95V626.15H2105.52V557.356H2055.98C2056.69 561.159 2057.4 572.684 2058.12 591.932C2057.4 592.645 2055.26 593.239 2051.7 593.714C2050.75 592.288 2050.27 591.219 2050.27 590.506C2049.32 571.02 2048.85 559.97 2048.85 557.356H1996.45V625.438C1996.45 626.388 1995.97 626.863 1995.02 626.863L1994.31 625.438V557.356H1936.57L1933.36 558.782C1933.12 558.307 1932.88 557.832 1932.65 557.356H1885.24V626.15H1883.81V557.356H1838.9C1838.43 557.594 1838.19 558.069 1838.19 558.782C1837.48 578.03 1836.76 589.08 1836.05 591.932C1832.01 591.456 1829.51 590.981 1828.56 590.506C1829.04 585.278 1829.75 574.228 1830.7 557.356H1774.74V625.438C1774.74 626.388 1774.27 626.863 1773.32 626.863L1772.6 625.438V557.356H1710.58C1710.34 557.594 1710.22 558.069 1710.22 558.782L1707.73 598.704L1705.59 600.486H1701.31C1700.13 600.486 1699.53 599.892 1699.53 598.704C1699.53 595.853 1700.48 582.07 1702.38 557.356H1663.89V555.218H1684.2V550.584C1684.44 549.396 1684.92 548.802 1685.63 548.802H1702.03C1702.98 548.802 1703.45 547.97 1703.45 546.307C1706.07 507.335 1708.56 470.621 1710.94 436.165H1663.89V434.739H1711.29C1714.15 391.015 1716.88 350.975 1719.49 314.617H1663.89V312.835H1719.85C1723.18 266.972 1726.03 226.932 1728.4 192.713H1663.89V191.287H1728.4C1731.97 140.197 1734.7 102.413 1736.6 77.9375H1722.34C1721.63 77.9375 1721.27 77.4622 1721.27 76.5117V72.2344H1663.89V70.0957H1721.27C1721.27 69.3828 1721.63 69.0264 1722.34 69.0264H1737.31C1738.03 46.6891 1739.22 35.5205 1740.88 35.5205H1744.44C1745.39 35.5205 1746.11 36.3522 1746.58 38.0156C1746.34 51.0853 1745.63 61.4222 1744.44 69.0264H1772.6V2.01465C1772.6 1.06413 1773.08 0.588867 1774.03 0.588867L1774.74 2.01465V69.0264H1821.08L1811.81 47.2832C1815.14 45.1445 1817.28 44.0752 1818.23 44.0752C1825.83 60.4717 1829.99 68.7887 1830.7 69.0264H1864.57C1865.28 69.0264 1865.75 69.3828 1865.99 70.0957H1883.81V1.30176H1885.24V70.0957H1982.55C1983.5 70.0957 1983.97 70.571 1983.97 71.5215L1982.55 72.2344H1885.24V170.97H1883.81V72.2344H1865.99V76.5117C1865.99 77.4622 1865.52 77.9375 1864.57 77.9375H1834.27C1882.27 183.921 1918.63 263.527 1943.34 316.756H1944.41C1944.41 315.805 1949.76 303.567 1960.45 280.042C2019.86 150.296 2050.51 82.9277 2052.41 77.9375H2019.26C2018.31 77.9375 2017.84 77.4622 2017.84 76.5117V72.2344H1999.3C1998.35 72.2344 1997.88 71.7591 1997.88 70.8086L1999.3 70.0957H2017.84C2018.07 69.3828 2018.55 69.0264 2019.26 69.0264H2057.4C2060.73 59.5212 2063.22 54.7686 2064.89 54.7686C2067.26 56.432 2069.05 57.2637 2070.23 57.2637V57.9766C2070.23 59.64 2068.69 63.3232 2065.6 69.0264H2105.52V1.30176H2106.95V69.0264H2142.24L2140.81 51.5605L2142.24 50.4912H2148.65C2149.37 59.0459 2149.72 64.8678 2149.72 67.957L2150.79 69.0264H2161.48C2162.2 69.0264 2162.67 69.3828 2162.91 70.0957ZM2196.06 555.218H2216.73V436.165H2176.1C2178.47 471.81 2181.09 509.355 2183.94 548.802H2194.63C2195.58 549.039 2196.06 549.633 2196.06 550.584V555.218ZM2175.74 434.739H2216.73V314.617H2167.19C2169.8 351.688 2172.65 391.728 2175.74 434.739ZM2167.19 312.835H2216.73V192.713H2158.63C2161.25 228.595 2164.1 268.636 2167.19 312.835ZM2158.63 191.287H2216.73V72.2344H2162.91V76.5117C2162.91 77.4622 2162.43 77.9375 2161.48 77.9375H2150.79C2152.93 109.305 2155.54 147.088 2158.63 191.287ZM2023.9 555.218V550.584C2023.9 549.396 2024.25 548.802 2024.97 548.802H2048.13L2041.01 436.165H2038.87V434.739H2041.01L2037.08 370.936H2036.02C2026.75 393.035 2002.51 448.997 1963.3 538.821H1970.79C1971.5 539.059 1971.86 539.653 1971.86 540.604V546.307C1971.86 547.495 1971.5 548.089 1970.79 548.089H1958.67C1958.67 550.703 1957.72 552.01 1955.82 552.01C1952.01 549.871 1949.87 548.564 1949.4 548.089H1936.57V548.802C1937.99 551.416 1938.71 553.554 1938.71 555.218H1994.31V516.365C1994.31 515.177 1994.79 514.583 1995.74 514.583L1996.45 516.365V555.218H2023.9ZM1931.58 555.218C1928.96 550.465 1927.54 548.089 1927.3 548.089H1914.11C1912.92 548.089 1912.33 547.495 1912.33 546.307V540.604C1912.57 539.415 1913.16 538.821 1914.11 538.821H1923.38V538.108C1874.9 427.373 1850.66 371.292 1850.66 369.866H1849.95C1843.06 482.741 1839.61 542.386 1839.61 548.802H1854.94C1855.89 549.039 1856.37 549.633 1856.37 550.584V555.218H1883.81V461.116H1885.24V555.218H1931.58ZM1774.74 548.089H1790.07C1790.07 545 1797.43 533.593 1812.17 513.87V513.157C1794.58 526.465 1782.11 535.851 1774.74 541.316V548.089ZM2106.95 519.573C2108.37 518.385 2109.8 517.078 2111.23 515.652C2109.8 516.84 2108.37 517.91 2106.95 518.86V519.573ZM2167.9 434.739C2167.66 431.888 2167.43 428.561 2167.19 424.759C2164.34 428.086 2161.25 431.412 2157.92 434.739H2167.9ZM1995.74 0.588867L1996.45 2.01465V69.3828C1996.45 70.3333 1995.97 70.8086 1995.02 70.8086L1994.31 69.3828V2.01465C1994.31 1.06413 1994.79 0.588867 1995.74 0.588867ZM2464.46 78.2939C2464.46 80.9079 2462.21 84.8288 2457.69 90.0566V90.7695C2469.33 83.6406 2475.51 79.4821 2476.23 78.2939H2464.46ZM2679.04 547.376V548.089H2694.73V539.178L2679.04 547.376ZM2355.39 548.089H2369.65C2369.65 545.95 2374.4 539.653 2383.91 529.197C2365.37 540.841 2355.87 547.138 2355.39 548.089ZM2578.53 529.91C2576.62 528.722 2575.2 528.128 2574.25 528.128V529.197C2576.39 535.613 2577.46 539.415 2577.46 540.604C2581.02 535.851 2585.77 530.861 2591.71 525.633C2586.25 528.484 2581.85 529.91 2578.53 529.91ZM2608.47 548.089H2627.36C2630.69 542.623 2640.43 531.811 2656.59 515.652C2624.74 536.564 2608.7 547.376 2608.47 548.089ZM2283.03 503.177C2283.03 504.603 2281.13 510.781 2277.33 521.712C2288.97 511.731 2295.63 506.741 2297.29 506.741V505.672L2291.59 506.741H2289.8C2287.9 506.741 2285.65 505.553 2283.03 503.177ZM2689.74 499.969C2689.74 501.157 2683.68 507.811 2671.56 519.93C2683.2 512.088 2690.69 508.167 2694.01 508.167C2692.35 502.701 2690.92 499.969 2689.74 499.969ZM2382.84 504.959V505.672H2384.62C2396.74 496.167 2406.96 490.701 2415.27 489.275L2418.84 476.8C2396.03 495.573 2384.03 504.959 2382.84 504.959ZM2671.56 481.79V482.503H2672.27C2677.26 479.651 2680.94 478.226 2683.32 478.226C2682.13 476.087 2681.54 474.424 2681.54 473.235C2676.07 478.938 2672.75 481.79 2671.56 481.79ZM2569.26 492.483H2566.76C2565.34 492.483 2563.67 491.889 2561.77 490.701V491.771C2566.29 503.89 2568.54 510.781 2568.54 512.444H2569.26C2569.26 506.979 2586.96 489.751 2622.37 460.76C2591.48 481.909 2573.77 492.483 2569.26 492.483ZM2508.66 465.75V466.819H2516.15C2516.15 464.681 2517.45 462.186 2520.07 459.334C2513.18 463.611 2509.38 465.75 2508.66 465.75ZM2559.28 467.532C2553.81 466.819 2551.08 464.087 2551.08 459.334C2544.66 463.611 2540.98 465.75 2540.03 465.75V466.819H2552.5C2553.46 466.819 2555.71 472.285 2559.28 483.216H2559.99C2559.99 479.176 2573.3 466.463 2599.91 445.076C2577.81 460.047 2564.27 467.532 2559.28 467.532ZM2620.94 480.008C2651.6 459.572 2668.71 449.354 2672.27 449.354V448.284C2670.13 442.106 2669.06 438.541 2669.06 437.591H2668.35C2659.79 445.908 2643.99 460.047 2620.94 480.008ZM2369.65 440.799C2375.11 437.947 2377.85 436.046 2377.85 435.096C2372.38 437.947 2369.65 439.848 2369.65 440.799ZM2450.21 465.75V466.819H2481.22C2484.78 459.928 2496.42 445.789 2516.15 424.402C2516.86 424.402 2517.69 423.571 2518.64 421.907H2517.57C2474.32 451.136 2451.87 465.75 2450.21 465.75ZM2387.83 428.323L2402.08 420.125V419.412H2401.37C2392.58 424.402 2388.06 427.373 2387.83 428.323ZM2624.15 443.294C2645.77 429.036 2658.84 421.907 2663.36 421.907C2660.98 417.155 2659.79 413.828 2659.79 411.927C2652.9 418.818 2641.02 429.274 2624.15 443.294ZM2517.57 403.372V405.867H2518.64C2520.78 405.154 2521.85 404.323 2521.85 403.372H2517.57ZM2471.24 403.372C2471.24 408.6 2461.49 419.769 2442.01 436.878L2491.91 403.372H2471.24ZM2320.46 398.382C2320.46 399.808 2319.15 404.323 2316.54 411.927C2323.67 405.748 2327.83 402.659 2329.01 402.659V401.946C2326.16 401.946 2323.31 400.758 2320.46 398.382ZM2528.62 388.401V389.471L2529.34 393.392H2531.12C2531.12 392.679 2531.59 391.609 2532.54 390.184C2531.12 390.184 2529.81 389.59 2528.62 388.401ZM2425.25 402.659V405.154C2435.23 400.164 2441.89 397.669 2445.21 397.669C2445.21 396.006 2446.4 391.847 2448.78 385.193C2433.1 396.124 2425.25 401.946 2425.25 402.659ZM2514.37 445.789V446.858C2534.09 435.69 2555.48 419.056 2578.53 396.956C2579.95 396.956 2585.18 392.441 2594.21 383.411C2563.79 404.085 2546.33 414.422 2541.81 414.422C2541.81 415.848 2532.66 426.303 2514.37 445.789ZM2332.22 365.945C2332.22 366.896 2331.15 370.817 2329.01 377.708C2329.73 377.708 2333.29 374.975 2339.71 369.51C2338.04 369.51 2335.79 368.322 2332.93 365.945H2332.22ZM2526.84 370.223C2525.42 370.223 2523.75 369.629 2521.85 368.44V369.51C2524.23 377.114 2525.89 380.916 2526.84 380.916C2526.84 378.54 2531.59 373.312 2541.1 365.232H2540.03C2535.04 368.559 2530.64 370.223 2526.84 370.223ZM2591 404.441C2615.71 387.332 2633.66 376.52 2644.82 372.005V370.936L2640.9 359.529C2629.97 370.223 2613.34 385.193 2591 404.441ZM2517.57 355.965V357.034C2518.29 357.985 2518.64 359.054 2518.64 360.242H2520.07C2520.07 359.529 2520.42 358.698 2521.14 357.747C2520.19 357.747 2519 357.153 2517.57 355.965ZM2511.87 337.786V338.499C2513.53 345.153 2514.96 348.479 2516.15 348.479C2516.15 347.054 2518.64 343.727 2523.63 338.499C2519.36 339.687 2517.1 340.281 2516.86 340.281L2511.87 337.786ZM2344.7 332.083C2341.37 341.351 2339.71 346.578 2339.71 347.767L2354.68 335.291C2349.69 335.291 2346.36 334.222 2344.7 332.083ZM2464.46 328.519V329.588H2466.96L2467.67 327.806V327.093C2466.48 328.043 2465.41 328.519 2464.46 328.519ZM2506.17 321.033C2507.12 323.41 2507.59 325.429 2507.59 327.093H2509.38C2509.38 326.142 2509.97 324.716 2511.16 322.815L2506.17 321.033ZM2614.17 325.311V326.023H2614.88L2626.65 320.32L2625.93 316.043H2624.86C2618.92 322.221 2615.36 325.311 2614.17 325.311ZM2426.32 305.35L2362.88 345.271V345.984H2363.95L2427.75 306.062V305.35H2426.32ZM2455.2 394.461H2520.07V393.392C2499.16 328.756 2488.7 296.082 2488.7 295.369C2487.75 295.607 2479.08 321.39 2462.68 372.718C2462.21 372.955 2459.71 380.203 2455.2 394.461ZM2357.89 294.656L2352.18 312.835H2352.9C2365.97 302.379 2373.21 297.151 2374.64 297.151V296.082H2373.93C2369.65 297.27 2366.8 297.864 2365.37 297.864C2363.95 297.864 2361.45 296.795 2357.89 294.656ZM2504.38 298.577H2503.67C2502.01 298.577 2500.35 298.102 2498.68 297.151V297.864L2502.6 311.053H2503.67C2503.67 307.964 2509.73 301.31 2521.85 291.092C2513.77 296.082 2507.95 298.577 2504.38 298.577ZM2609.89 290.379H2610.96L2614.88 289.666V286.102C2611.56 288.24 2609.89 289.666 2609.89 290.379ZM2446.28 265.428L2377.85 309.627V310.34H2379.63L2447.71 266.141V265.428H2446.28ZM2584.94 259.725C2593.26 254.734 2599.08 252.239 2602.41 252.239C2601.46 249.863 2600.98 247.843 2600.98 246.18H2599.91C2589.93 254.497 2584.94 259.012 2584.94 259.725ZM2505.1 242.259V242.972H2506.88V242.259H2505.1ZM2507.59 267.21V267.923H2509.38C2509.85 267.923 2523.16 259.012 2549.3 241.189L2507.59 267.21ZM2414.56 238.694C2398.64 249.863 2387.23 255.447 2380.34 255.447C2378.68 255.447 2376.54 254.378 2373.93 252.239H2372.86L2365.37 275.408C2396.98 251.645 2413.97 239.764 2416.34 239.764V238.694H2414.56ZM2382.12 227.288C2380.46 232.516 2379.63 235.249 2379.63 235.486C2384.14 232.397 2386.4 230.496 2386.4 229.783C2385.45 229.783 2384.03 228.951 2382.12 227.288ZM2551.08 213.03C2550.84 213.743 2537.77 222.06 2511.87 237.981V238.694H2513.65C2513.89 237.981 2526.84 229.664 2552.5 213.743V213.03H2551.08ZM2584.23 203.763L2578.53 210.535H2579.24L2586.72 208.753C2586.25 205.426 2585.42 203.763 2584.23 203.763ZM2535.04 193.069C2533.14 195.208 2521.26 202.931 2499.39 216.238V217.308H2501.18C2504.98 213.981 2516.86 206.139 2536.82 193.782V193.069H2535.04ZM2574.96 178.812C2569.26 185.94 2564.27 190.455 2559.99 192.356V193.069H2561.06C2568.43 189.267 2574.49 187.366 2579.24 187.366C2577.57 183.326 2576.74 180.475 2576.74 178.812H2574.96ZM2489.41 191.287L2521.85 168.831L2487.28 191.287H2489.41ZM2485.14 192.713L2476.94 198.06V198.772H2478.72L2487.28 192.713H2485.14ZM2405.29 162.415L2403.87 168.118C2406.24 166.93 2407.55 165.861 2407.79 164.91C2407.79 163.96 2406.96 163.128 2405.29 162.415ZM2515.08 191.287C2541.93 174.178 2556.66 165.623 2559.28 165.623C2563.32 163.484 2566.88 162.415 2569.97 162.415L2566.76 151.365H2566.05C2553.22 162.534 2535.51 175.841 2512.94 191.287H2515.08ZM2438.44 240.12L2393.89 269.705V270.418H2395.31C2410.76 259.962 2425.14 250.338 2438.44 241.546V240.12ZM2439.87 240.477C2469.81 220.516 2494.17 204.594 2512.94 192.713H2510.8C2495.35 203.169 2477.65 214.694 2457.69 227.288L2439.87 239.051V240.477ZM2417.06 128.909C2417.06 129.86 2415.15 135.682 2411.35 146.375C2423 136.395 2429.29 131.404 2430.24 131.404V130.691L2424.54 131.404H2421.33L2417.06 128.909ZM2433.81 192.356C2506.29 142.929 2546.45 118.216 2554.29 118.216C2552.15 111.562 2551.08 107.641 2551.08 106.453H2550.01C2526.96 126.652 2498.21 148.038 2463.75 170.613C2443.79 184.396 2433.81 191.644 2433.81 192.356ZM2429.53 95.7598C2428.34 97.8984 2427.27 100.988 2426.32 105.027C2426.56 105.027 2428.7 102.532 2432.74 97.542C2432.03 97.542 2430.96 96.9479 2429.53 95.7598ZM2510.09 78.2939C2510.09 84.2347 2498.44 95.8786 2475.16 113.226C2503.91 93.9775 2522.56 82.5713 2531.12 79.0068V78.2939H2510.09ZM2218.52 434.739H2286.95V436.165H2218.52V434.739ZM2763.88 555.218H2771.36V436.165H2700.79V434.739H2771.36V314.617H2704.71V312.835H2771.36V192.713H2694.01V191.287H2771.36V72.2344H2661.58V136.751H2660.15V72.2344H2572.47V76.5117C2572.47 77.6999 2571.99 78.2939 2571.04 78.2939H2550.01C2551.44 82.5713 2588.15 185.465 2660.15 386.976V350.618H2661.58V390.896C2678.45 438.185 2697.34 490.939 2718.25 549.158H2762.09C2763.28 549.158 2763.88 549.633 2763.88 550.584V555.218ZM2542.52 555.218V550.584C2542.76 549.633 2543.36 549.158 2544.31 549.158H2548.94V516.365C2548.94 515.177 2549.42 514.583 2550.37 514.583L2551.08 516.365V549.158H2571.04V548.089L2547.51 475.73H2439.87V555.218H2542.52ZM2438.44 475.73H2429.53C2427.87 477.632 2419.79 502.107 2405.29 549.158H2427.04C2428.22 549.158 2428.82 549.633 2428.82 550.584V555.218H2438.44V475.73ZM2327.23 534.544V524.207C2312.26 533.95 2299.55 541.673 2289.09 547.376V548.089H2316.54C2317.49 545.237 2321.05 540.722 2327.23 534.544ZM2439.87 42.6494C2440.11 42.4118 2440.34 42.0553 2440.58 41.5801C2443.91 42.5306 2446.4 43.5999 2448.07 44.7881L2439.87 66.1748V69.0264H2536.82C2536.82 67.8382 2532.66 55.9567 2524.35 33.3818C2526.01 32.4313 2528.5 31.362 2531.83 30.1738C2534.21 33.5007 2538.96 46.4515 2546.09 69.0264H2548.94V2.01465C2548.94 1.06413 2549.42 0.588867 2550.37 0.588867L2551.08 2.01465V69.0264H2571.04C2571.75 69.264 2572.23 69.6204 2572.47 70.0957H2660.15V1.30176H2661.58V70.0957H2771.36V1.30176H2772.79V626.15H2771.36V557.356H2721.46V558.069C2727.88 574.941 2731.08 583.971 2731.08 585.159C2727.99 586.823 2725.5 587.654 2723.6 587.654C2721.94 584.09 2717.9 573.991 2711.48 557.356H2661.58V626.15H2660.15V557.356H2583.52C2587.08 568.287 2588.86 574.347 2588.86 575.535C2585.77 577.199 2583.28 578.03 2581.38 578.03C2580.19 576.367 2577.81 569.476 2574.25 557.356H2551.08V625.438C2551.08 626.388 2550.6 626.863 2549.65 626.863L2548.94 625.438V557.356H2439.87V626.15H2438.44V557.356H2402.08C2395.43 578.268 2391.51 588.961 2390.32 589.437C2385.33 588.486 2382.84 587.417 2382.84 586.229L2392.82 557.356H2329.37V625.438C2329.37 626.388 2328.89 626.863 2327.94 626.863L2327.23 625.438V557.356H2264.14C2262 564.248 2259.51 570.901 2256.66 577.317C2251.67 575.892 2249.17 574.466 2249.17 573.04L2254.87 557.356H2208.89C2207.7 557.356 2207.11 556.762 2207.11 555.574V550.584C2207.35 549.633 2207.94 549.158 2208.89 549.158H2256.66C2259.27 545.594 2273.65 505.91 2299.79 430.105C2381.77 202.693 2423.59 85.4229 2425.25 78.2939H2387.11C2385.93 78.2939 2385.33 77.6999 2385.33 76.5117V72.2344H2329.37V191.287H2366.44V192.713H2329.37V198.06C2329.37 199.01 2328.89 199.485 2327.94 199.485L2327.23 198.06V192.713H2218.52V191.287H2327.23V72.2344H2218.52V70.0957H2327.23V2.01465C2327.23 1.06413 2327.71 0.588867 2328.66 0.588867L2329.37 2.01465V70.0957H2385.69C2385.93 69.3828 2386.4 69.0264 2387.11 69.0264H2429.53C2433.1 58.333 2436.07 50.4912 2438.44 45.501V1.30176H2439.87V42.6494ZM2438.44 82.9277V78.2939H2435.23C2434.76 79.9574 2434.52 82.2148 2434.52 85.0664C2435.95 84.3535 2437.25 83.6406 2438.44 82.9277ZM2439.87 169.9V170.97H2438.44C2421.1 181.901 2410.05 187.366 2405.29 187.366H2403.87C2401.97 187.366 2399.95 186.535 2397.81 184.871H2397.09C2397.09 185.822 2394.36 194.139 2388.9 209.822C2408.62 193.901 2433.81 175.247 2464.46 153.86C2455.2 160.039 2447 165.385 2439.87 169.9ZM2439.87 81.8584C2441.29 80.9079 2442.6 79.7197 2443.79 78.2939H2439.87V81.8584ZM2329.37 532.405C2337.92 524.326 2350.52 513.751 2367.15 500.682L2392.82 481.79V480.721H2391.39C2367.63 497.355 2346.95 511.375 2329.37 522.781V532.405ZM2328.66 332.083L2329.37 333.509V339.568C2329.37 340.519 2328.89 340.994 2327.94 340.994L2327.23 339.568V333.509C2327.23 332.558 2327.71 332.083 2328.66 332.083ZM2660.15 269.349H2661.58V292.518H2660.15V269.349ZM2328.66 250.457L2329.37 251.883V286.458C2329.37 287.409 2328.89 287.884 2327.94 287.884L2327.23 286.458V251.883C2327.23 250.932 2327.71 250.457 2328.66 250.457ZM2643.75 191.287H2650.17V192.713H2643.75V191.287ZM2218.52 312.835H2305.84V314.617H2218.52V312.835ZM2876.16 78.6504V80.4326H2876.87C2878.06 80.4326 2878.65 79.8385 2878.65 78.6504H2876.16ZM3066.86 555.218H3103.57V545.95C3091.45 550.228 3079.21 553.317 3066.86 555.218ZM2876.16 335.647V339.925C2879.48 337.786 2881.15 336.36 2881.15 335.647H2876.16ZM3238.66 335.647C3238.66 336.598 3237.83 338.024 3236.17 339.925C3236.17 340.638 3237 341.469 3238.66 342.42L3239.73 338.143V335.647H3238.66ZM2876.16 381.272V395.53C2891.84 381.985 2915.37 363.688 2946.73 340.638C2907.29 367.728 2883.76 381.272 2876.16 381.272ZM2989.15 361.312V362.381H2990.22C2997.11 358.341 3002.58 356.321 3006.62 356.321L3011.61 358.816V343.133C2998.54 355.252 2991.05 361.312 2989.15 361.312ZM3214.78 357.034C3192.44 371.53 3165.47 387.451 3133.87 404.798L3081.47 440.442C3081.47 441.631 3079.81 442.462 3076.48 442.938C3065.07 451.255 3058.78 455.413 3057.59 455.413V456.126H3059.01C3136.96 410.263 3188.88 377.827 3214.78 358.816V357.034ZM3216.21 358.104C3217.63 357.391 3218.82 356.321 3219.77 354.896H3217.99C3217.51 355.371 3216.92 355.727 3216.21 355.965V358.104ZM3217.28 373.787H3217.99C3222.5 373.312 3225.24 372.837 3226.19 372.361C3229.51 373.074 3232.36 374.381 3234.74 376.282L3237.95 355.608C3232.72 360.836 3225.83 366.896 3217.28 373.787ZM3102.5 379.847C3113.91 372.005 3119.73 367.846 3119.97 367.371H3118.9C3115.57 369.272 3110.94 370.579 3105 371.292C3105 372.48 3104.16 375.332 3102.5 379.847ZM3142.42 383.055V383.768H3143.85C3150.03 378.777 3157.04 374.381 3164.88 370.579V369.866H3163.81L3142.42 383.055ZM3010.89 379.847C3004.48 388.164 2993.43 397.788 2977.74 408.719L2938.54 437.947C2976.79 411.808 2999.25 398.738 3005.9 398.738L3011.61 401.233V379.847H3010.89ZM2877.94 418.699H2876.16V427.254L2893.62 412.996C2886.49 416.798 2881.27 418.699 2877.94 418.699ZM2876.16 456.126V469.671C2886.85 459.928 2909.07 442.7 2942.81 417.986C2905.74 443.413 2883.52 456.126 2876.16 456.126ZM3010.89 419.769C3010.66 422.145 3007.09 425.472 3000.2 429.749V430.462L3004.12 429.749H3005.9C3007.8 429.749 3009.71 430.581 3011.61 432.244V419.769H3010.89ZM3195.53 440.442V441.155H3196.25L3204.8 438.66C3207.89 439.611 3210.38 440.799 3212.29 442.225C3217.75 430.105 3220.48 423.452 3220.48 422.264C3209.31 431.769 3201 437.828 3195.53 440.442ZM3105 482.859V483.572H3106.42C3110.22 480.483 3132.68 466.106 3173.79 440.442V439.729H3173.08C3171.65 439.729 3148.96 454.106 3105 482.859ZM3020.16 443.65V446.146H3020.87C3024.68 444.244 3026.58 442.938 3026.58 442.225H3021.59C3020.64 442.225 3020.16 442.7 3020.16 443.65ZM2961.7 482.859V483.572H2962.77C2971.33 479.533 2987.61 469.077 3011.61 452.205V448.641C2996.87 461.235 2980.24 472.641 2961.7 482.859ZM2991.65 511.019V512.088H2992.71C3023.61 495.216 3050.46 479.057 3073.27 463.611V462.898H3072.56L2991.65 511.019ZM3193.75 467.889L3195.53 468.602L3197.31 465.394C3194.94 466.106 3193.75 466.938 3193.75 467.889ZM2893.62 542.742H2894.34C2923.09 527.771 2958.61 506.385 3000.91 478.582V477.869H3000.2C2986.18 485.711 2959.57 501.751 2920.36 525.989C2906.34 532.643 2897.43 538.227 2893.62 542.742ZM2957.78 485.354V486.067H2959.21V485.354H2957.78ZM2876.16 496.048V500.325C2879.96 497.711 2881.86 496.048 2881.86 495.335C2879.72 495.81 2877.82 496.048 2876.16 496.048ZM3004.12 547.732V548.445H3020.87C3020.87 543.93 3028.36 535.97 3043.33 524.563C3025.98 535.494 3012.91 543.217 3004.12 547.732ZM3095.73 537.752V538.465H3096.44C3101.43 537.514 3103.93 536.445 3103.93 535.257V533.475H3103.21C3099.41 536.326 3096.92 537.752 3095.73 537.752ZM2912.87 548.445H2928.55C2928.55 544.881 2931.05 540.485 2936.04 535.257H2935.33L2912.87 548.445ZM2949.23 540.247V540.96H2951.01C2954.34 538.108 2956 536.445 2956 535.97C2952.2 538.821 2949.94 540.247 2949.23 540.247ZM2876.16 309.983V314.974C2878.77 313.31 2881.5 311.053 2884.36 308.201C2880.32 309.389 2877.58 309.983 2876.16 309.983ZM3010.89 304.993C3004 313.548 2990.69 325.192 2970.97 339.925C2952.44 352.757 2940.79 361.312 2936.04 365.589C2975.25 338.974 2997.94 325.667 3004.12 325.667H3008.4L3011.61 328.162V304.993H3010.89ZM3191.25 334.935C3213.83 320.439 3227.97 313.191 3233.67 313.191C3235.57 313.191 3237.83 314.261 3240.44 316.399V308.201C3240.44 305.35 3240.21 301.191 3239.73 295.726C3229.51 306.657 3213.35 319.726 3191.25 334.935ZM3116.4 311.409H3114.98V323.885C3121.15 318.182 3136.6 305.706 3161.31 286.458C3136.84 303.092 3121.87 311.409 3116.4 311.409ZM3237.95 282.537C3237.95 283.012 3237.71 283.844 3237.24 285.032L3238.66 285.745V282.537H3237.95ZM3010.89 282.537C3010.89 283.012 3010.66 283.844 3010.18 285.032L3011.61 285.745V282.537H3010.89ZM2884 283.606C2888.04 280.517 2890.42 278.973 2891.13 278.973V278.26H2890.42C2888.04 279.448 2885.9 280.517 2884 281.468V283.606ZM2881.86 282.181C2879.72 282.894 2877.82 283.25 2876.16 283.25V290.022C2878.3 288.359 2880.2 286.814 2881.86 285.389V282.181ZM3107.49 263.289C3107.97 264.24 3108.2 265.071 3108.2 265.784C3110.58 265.071 3112.24 263.646 3113.19 261.507C3109.39 261.982 3107.49 262.576 3107.49 263.289ZM3000.91 270.062L3005.19 268.992C3006.85 268.992 3008.99 269.824 3011.61 271.487V259.012L3000.91 270.062ZM3112.48 283.25C3112.96 287.052 3113.19 290.141 3113.19 292.518V293.23H3113.91C3121.27 286.339 3136.24 273.864 3158.82 255.804C3134.82 272.2 3119.37 281.111 3112.48 282.537V283.25ZM2884 256.16L2891.13 250.101H2890.42C2888.28 251.289 2886.14 252.12 2884 252.596V256.16ZM2881.86 252.952C2880.2 253.19 2878.53 253.309 2876.87 253.309H2876.16V262.576L2881.86 257.942V252.952ZM3232.25 242.615C3232.25 248.081 3215.61 263.051 3182.34 287.527C3176.17 292.042 3173.08 294.537 3173.08 295.013C3204.92 273.388 3223.81 262.576 3229.75 262.576H3230.46C3232.36 262.576 3234.27 263.408 3236.17 265.071V263.289L3232.96 242.615H3232.25ZM2998.42 245.823L3004.12 245.11H3005.9C3007.8 245.11 3009.71 245.942 3011.61 247.605V233.348L2998.42 245.823ZM3098.94 241.546C3100.6 244.397 3101.43 246.417 3101.43 247.605H3102.5C3106.06 243.803 3114.38 236.556 3127.45 225.862C3114.38 233.942 3104.88 239.17 3098.94 241.546ZM3090.02 225.149C3090.5 226.1 3090.74 226.932 3090.74 227.645H3092.52C3092.52 226.694 3092.99 225.506 3093.95 224.08H3092.52C3091.33 224.793 3090.5 225.149 3090.02 225.149ZM3223.69 214.1C3223.69 220.278 3208.72 234.773 3178.78 257.586C3176.17 259.012 3173.43 261.15 3170.58 264.002C3200.28 243.566 3218.82 233.348 3226.19 233.348L3230.46 235.843V234.061L3224.76 214.1H3223.69ZM2991.65 223.367V224.08H2992.71C2997.71 221.466 3001.86 220.159 3005.19 220.159H3005.9C3007.8 220.159 3009.71 220.991 3011.61 222.654V206.614C2999.96 217.783 2993.31 223.367 2991.65 223.367ZM2921.78 197.703C2903.25 210.773 2888.28 218.258 2876.87 220.159C2876.87 219.446 2876.63 219.09 2876.16 219.09V232.635C2889.7 220.753 2905.5 209.347 2923.56 198.416V197.703H2921.78ZM3216.21 195.921C3216.21 198.772 3213.47 202.931 3208.01 208.396H3209.79C3211.45 207.208 3213.12 206.614 3214.78 206.614H3216.21C3218.11 206.614 3220.13 207.446 3222.27 209.109V208.396C3218.94 201.03 3217.28 196.871 3217.28 195.921H3216.21ZM3020.87 194.139V432.957C3039.41 432.957 3056.64 425.234 3072.56 409.788C3072.56 406.224 3076.95 400.402 3085.75 392.322C3099.05 369.747 3105.71 343.608 3105.71 313.904C3105.71 261.388 3087.41 223.961 3050.82 201.624C3038.7 196.871 3028.72 194.376 3020.87 194.139ZM3010.18 194.139C3010.18 195.327 3010.66 195.921 3011.61 195.921V194.139H3010.18ZM3048.32 185.228H3050.1C3050.82 185.228 3051.88 184.039 3053.31 181.663C3049.98 183.089 3048.32 184.277 3048.32 185.228ZM3200.52 191.287C3203.14 190.099 3205.39 189.386 3207.29 189.148H3208.72C3210.38 189.148 3212.05 189.743 3213.71 190.931V190.218C3210.15 181.901 3207.18 176.554 3204.8 174.178C3204.8 181.069 3195.65 190.812 3177.35 203.406L3176.28 205.188C3185.08 199.248 3192.44 194.97 3198.38 192.356V191.287H3200.52ZM3082.18 191.287C3087.41 186.297 3094.66 180.118 3103.93 172.752C3086.82 183.208 3077.67 189.386 3076.48 191.287H3082.18ZM3076.12 192.713C3075.17 193.901 3072.56 194.733 3068.28 195.208C3068.04 196.159 3066.38 196.99 3063.29 197.703V198.416C3063.29 198.891 3065.79 200.792 3070.78 204.119C3070.78 202.456 3074.1 198.654 3080.76 192.713H3076.12ZM3194.82 159.207C3194.82 162.534 3192.8 166.217 3188.76 170.257H3189.83C3191.49 169.306 3193.99 168.475 3197.31 167.762C3199.45 168.712 3201.12 169.188 3202.3 169.188C3198.03 162.534 3195.53 159.207 3194.82 159.207ZM2897.9 230.853V231.565H2899.33C2933.78 210.654 2971.21 186.059 3011.61 157.781V156.712H3010.89C2965.27 185.703 2927.6 210.416 2897.9 230.853ZM3168.09 130.335C3168.09 136.513 3157.51 147.801 3136.36 164.197C3158.94 149.227 3173.08 141.741 3178.78 141.741C3179.97 142.454 3180.8 142.811 3181.27 142.811C3181.27 142.098 3177.12 137.939 3168.8 130.335H3168.09ZM2876.16 165.979V180.237C2889.7 168.118 2915.49 148.395 2953.51 121.067C2909.78 151.009 2884 165.979 2876.16 165.979ZM3021.59 166.692V167.762H3022.66C3047.85 152.316 3072.8 136.513 3097.51 120.354V119.285H3096.44C3078.86 129.741 3053.9 145.543 3021.59 166.692ZM3151.33 116.79V121.067C3151.33 121.543 3148.84 124.632 3143.85 130.335H3144.92C3150.62 126.295 3155.25 124.275 3158.82 124.275H3160.6V123.562C3160.6 122.612 3157.87 120.354 3152.4 116.79H3151.33ZM2876.16 121.78V128.553C2881.15 124.988 2885.31 121.067 2888.63 116.79H2887.92C2884.83 119.166 2880.91 120.83 2876.16 121.78ZM3057.59 108.592L2957.78 174.178V175.247H2959.21L3059.01 109.305V108.592H3057.59ZM3128.16 101.819C3128.16 109.186 3124.84 115.008 3118.18 119.285C3105.35 130.691 3074.82 151.246 3026.58 180.95H3027.65C3038.82 175.247 3071.73 154.217 3126.38 117.859C3134.46 113.344 3140.05 111.087 3143.13 111.087C3142.9 110.136 3137.91 107.047 3128.16 101.819ZM3095.01 89.3438C3095.01 99.0866 3072.8 117.741 3028.36 145.306C3018.85 151.959 3013.63 155.286 3012.68 155.286V155.999H3015.17C3073.39 116.552 3107.13 96.8291 3116.4 96.8291V96.1162C3105.47 91.6012 3098.34 89.3438 3095.01 89.3438ZM3070.78 82.9277V86.8486C3073.87 85.1852 3076.12 84.3535 3077.55 84.3535V83.6406C3073.51 83.1654 3071.25 82.9277 3070.78 82.9277ZM3020.16 78.6504C3020.16 86.0169 3008.99 97.4232 2986.66 112.869L2909.31 170.257C2979.17 124.157 3021.35 96.7103 3035.84 87.918C3038.46 86.0169 3043.45 83.5218 3050.82 80.4326V79.3633C3037.75 78.888 3028 78.6504 3021.59 78.6504H3020.16ZM2990.22 78.6504V81.1455C2991.88 79.9574 2993.19 79.3633 2994.14 79.3633V78.6504H2990.22ZM2943.53 78.6504C2943.53 84.5911 2935.21 94.334 2918.57 107.879L2913.58 112.869C2942.34 93.6211 2959.57 82.4525 2965.27 79.3633V78.6504H2943.53ZM2897.9 78.6504C2897.9 81.0267 2896.24 85.4229 2892.91 91.8389C2904.55 83.5218 2910.85 79.3633 2911.8 79.3633V78.6504H2897.9ZM3105 0.588867L3105.71 2.01465V69.3828C3105.71 70.3333 3105.23 70.8086 3104.28 70.8086L3103.57 69.3828V2.01465C3103.57 1.06413 3104.04 0.588867 3105 0.588867ZM2821.98 557.356H2773.14V555.218H2821.26V550.94C2821.5 549.99 2822.1 549.515 2823.05 549.515H2865.46C2866.41 549.515 2866.89 548.921 2866.89 547.732V192.713H2773.14V191.287H2866.89V78.6504H2803.09C2801.9 78.6504 2801.3 78.0563 2801.3 76.8682V72.2344H2773.14V70.0957H2801.66C2801.9 69.6204 2802.37 69.3828 2803.09 69.3828H2866.89V31.9561C2867.13 31.0055 2867.72 30.5303 2868.67 30.5303H2873.66C2874.85 30.5303 2875.44 31.0055 2875.44 31.9561V69.3828H2881.86V2.01465C2881.86 1.06413 2882.34 0.588867 2883.29 0.588867L2884 2.01465V69.3828H2993.07V1.30176H2994.5V69.3828H3015.88C3023.73 69.3828 3031.33 69.6204 3038.7 70.0957H3091.81C3092.76 70.0957 3093.23 70.571 3093.23 71.5215L3091.81 72.2344H3060.44C3108.92 78.888 3147.89 96.8291 3177.35 126.058C3225.59 171.683 3249.71 234.298 3249.71 313.904C3249.71 413.234 3212.76 485.354 3138.86 530.267C3127.93 536.207 3116.88 541.198 3105.71 545.237V555.218H3214.78V492.127H3216.21V555.218H3325.99V436.165H3255.42V434.739H3325.99V314.617H3259.34V312.835H3325.99V192.713H3248.64V191.287H3325.99V72.2344H3216.21V136.751H3214.78V72.2344H3108.56C3107.61 72.2344 3107.13 71.7591 3107.13 70.8086L3108.56 70.0957H3214.78V1.30176H3216.21V70.0957H3325.99V1.30176H3327.42V626.15H3325.99V557.356H3216.21V626.15H3214.78V557.356H3105.71V625.438C3105.71 626.388 3105.23 626.863 3104.28 626.863L3103.57 625.438V557.356H3046.54C3042.5 557.594 3038.34 557.713 3034.06 557.713H2994.5V626.15H2993.07V557.713H2891.84C2889.94 557.713 2887.33 557.951 2884 558.426V625.438C2884 626.388 2883.52 626.863 2882.57 626.863L2881.86 625.438V558.069C2880.67 557.832 2878.77 557.713 2876.16 557.713H2875.44V591.575C2875.44 592.763 2874.85 593.357 2873.66 593.357H2868.67C2867.48 593.357 2866.89 592.763 2866.89 591.575V557.713H2823.05C2822.57 557.713 2822.22 557.594 2821.98 557.356ZM2773.14 312.835H2860.47V314.617H2773.14V312.835ZM2773.14 434.739H2841.58V436.165H2773.14V434.739Z" fill="white"/>
</svg>
